<svg xmlns="http://www.w3.org/2000/svg" width="50" height="50" viewBox="0 0 50 50">
  <g fill="none" fill-rule="evenodd">
    <rect width="50" height="50" fill="#172B4D" rx="4"/>
    <path fill="#FEFEFE" fill-rule="nonzero" d="M24.9406016,10.202028 L24.9406016,10.2024476 L24.9406016,10.202028 C17.8223089,10.202028 12.009935,12.1012587 12.009935,14.4595105 C12.009935,15.0806993 13.5621138,23.9871329 14.1778699,27.5191608 C14.453935,29.1032867 18.5784228,31.4256643 24.9372195,31.4256643 L24.9437724,31.4067832 L24.9437724,31.4256643 C31.3023577,31.4256643 35.4268455,29.1032867 35.7029106,27.5191608 C36.3186667,23.9871329 37.8708455,15.0806993 37.8708455,14.4595105 C37.8710569,12.1014685 32.0588943,10.202028 24.9406016,10.202028 Z M24.9406016,28.5643357 C22.6705691,28.5643357 20.8302764,26.7376923 20.8302764,24.484965 C20.8302764,22.2318182 22.6705691,20.4055944 24.9406016,20.4055944 C27.2106341,20.4055944 29.0509268,22.2318182 29.0509268,24.484965 C29.0509268,26.7376923 27.2106341,28.5643357 24.9406016,28.5643357 Z M24.9382764,15.7755245 C20.364813,15.7681818 16.6586504,14.9795804 16.6601301,14.0137063 C16.6616098,13.0478322 20.3707317,12.270979 24.9441951,12.2783217 C29.5176585,12.2854545 33.2238211,13.0740559 33.2223415,14.0401399 C33.2206504,15.0062238 29.5117398,15.7826573 24.9382764,15.7755245 Z M34.2342276,31.0591608 C34.4688618,31.0591608 34.6916585,31.2156643 34.6916585,31.5611888 C34.6916585,31.5976923 34.688065,31.6341958 34.6813008,31.6698601 C34.1870894,34.2951748 33.8260488,36.1576923 33.7626341,36.4413287 C33.3312033,38.3724476 29.5250569,39.8296503 24.9410244,39.8298601 L24.940813,39.8298601 L24.9406016,39.8298601 C20.3567805,39.8296503 16.5504228,38.3724476 16.1189919,36.4413287 C16.0555772,36.1579021 15.6945366,34.2951748 15.2003252,31.6698601 C15.193561,31.6341958 15.1899675,31.5976923 15.1899675,31.5611888 C15.1899675,31.2156643 15.4125528,31.0591608 15.6473984,31.0591608 C15.8437724,31.0591608 16.0014634,31.1972028 16.0014634,31.1972028 C16.0014634,31.1972028 19.1855122,33.6997902 24.940813,33.7 C30.6959024,33.6997902 33.8801626,31.1972028 33.8801626,31.1972028 C33.8801626,31.1972028 34.0376423,31.0591608 34.2342276,31.0591608 Z M24.9365854,26.5281119 C23.7989237,26.5281119 22.8766667,25.6128003 22.8766667,24.4837063 C22.8766667,23.3546123 23.7989237,22.4393007 24.9365854,22.4393007 C26.074247,22.4393007 26.9965041,23.3546123 26.9965041,24.4837063 C26.9965041,25.6128003 26.074247,26.5281119 24.9365854,26.5281119 Z"/>
  </g>
</svg>
