<?xml version="1.0" standalone="no"?>
<!DOCTYPE svg PUBLIC "-//W3C//DTD SVG 20010904//EN"
 "http://www.w3.org/TR/2001/REC-SVG-20010904/DTD/svg10.dtd">
<svg version="1.0" xmlns="http://www.w3.org/2000/svg"
 width="200.000000pt" height="200.000000pt" viewBox="0 0 200.000000 200.000000"
 preserveAspectRatio="xMidYMid meet">
<metadata>
Created by potrace 1.15, written by Peter Selinger 2001-2017
</metadata>
<g transform="translate(0.000000,200.000000) scale(0.100000,-0.100000)"
fill="#00BFFF" stroke="none">
<path d="M615 1659 c-247 -13 -393 -33 -417 -57 -16 -16 -25 -50 -41 -169 -16
-120 -20 -202 -20 -433 0 -231 4 -313 20 -433 26 -189 22 -185 175 -203 326
-38 761 -38 1086 0 144 17 148 20 167 147 34 232 43 509 24 750 -16 208 -35
319 -58 342 -24 24 -166 42 -446 57 -210 11 -269 11 -490 -1z m520 -177 c102
-47 156 -125 163 -237 5 -84 -13 -134 -70 -196 l-33 -35 38 -34 c63 -56 82
-101 82 -200 0 -68 -5 -93 -22 -125 -29 -55 -88 -110 -148 -137 -48 -22 -62
-23 -342 -26 l-293 -4 0 512 0 512 288 -4 c275 -3 289 -4 337 -26z"/>
<path d="M680 1226 l0 -136 170 0 c187 0 221 7 258 55 49 62 32 149 -38 190
-31 18 -56 20 -212 23 l-178 4 0 -136z"/>
<path d="M680 799 l0 -140 201 3 201 3 34 37 c31 34 34 44 34 96 0 69 -17 97
-74 123 -35 16 -67 19 -218 19 l-178 0 0 -141z"/>
<path d="M1787 1373 l-77 -57 0 -343 0 -342 80 -61 80 -61 0 461 c0 253 -1
460 -3 460 -2 0 -38 -26 -80 -57z"/>
</g>
</svg>
