<svg id="svg" version="1.1" width="400" height="398.6666666666667" xmlns="http://www.w3.org/2000/svg" xmlns:xlink="http://www.w3.org/1999/xlink" style="display: block;"><g id="svgg"><path id="path0" d="M19.143 0.376 C 19.143 0.583,19.509 1.009,19.956 1.322 L 20.770 1.892 19.932 2.112 C 19.412 2.248,19.011 2.115,18.876 1.764 C 18.533 0.869,17.822 1.088,16.179 2.592 C 15.341 3.360,14.521 3.988,14.358 3.988 C 14.194 3.988,12.691 5.317,11.018 6.942 C 8.163 9.715,7.436 10.768,8.375 10.768 C 8.594 10.768,8.774 10.968,8.774 11.213 C 8.774 11.458,8.438 11.570,8.027 11.463 C 7.452 11.313,7.325 11.440,7.475 12.015 C 7.627 12.594,7.452 12.762,6.696 12.762 C 5.852 12.762,3.988 14.186,3.988 14.831 C 3.988 14.954,3.360 15.740,2.592 16.578 C 1.251 18.043,0.642 20.339,1.595 20.339 C 1.815 20.339,1.982 20.833,1.967 21.436 C 1.941 22.513,1.932 22.516,1.507 21.635 C 0.796 20.160,0.000 20.528,0.000 22.333 C 0.000 23.210,0.179 23.928,0.399 23.928 C 0.618 23.928,0.798 24.736,0.798 25.723 C 0.798 26.710,0.618 27.517,0.399 27.517 C 0.134 27.517,0.000 85.078,0.000 199.402 C 0.000 313.725,0.134 371.286,0.399 371.286 C 0.618 371.286,0.798 372.094,0.798 373.081 C 0.798 374.068,0.618 374.875,0.399 374.875 C 0.179 374.875,0.000 375.593,0.000 376.471 C 0.000 378.286,0.963 378.710,1.583 377.168 C 1.929 376.306,1.944 376.314,1.969 377.368 C 1.983 377.971,1.815 378.465,1.595 378.465 C 0.969 378.465,1.129 380.704,1.795 381.256 C 2.124 381.529,2.393 382.000,2.393 382.302 C 2.393 382.604,2.561 382.851,2.766 382.851 C 2.971 382.851,3.644 383.565,4.261 384.438 C 5.100 385.624,5.661 386.027,6.481 386.033 C 7.309 386.040,7.577 386.237,7.577 386.839 C 7.577 387.321,7.854 387.650,8.275 387.669 C 8.692 387.687,8.772 387.781,8.475 387.901 C 7.865 388.147,7.807 389.631,8.407 389.631 C 8.645 389.631,9.983 390.798,11.381 392.223 C 12.778 393.649,14.187 394.816,14.511 394.816 C 14.836 394.816,15.209 395.155,15.340 395.570 C 15.472 395.985,15.888 396.429,16.264 396.556 C 16.641 396.683,17.258 397.012,17.636 397.288 C 18.202 397.701,18.413 397.675,18.833 397.141 C 19.174 396.706,19.602 396.590,20.131 396.788 C 20.896 397.074,20.893 397.097,20.031 397.559 C 18.783 398.226,18.926 398.804,20.339 398.804 C 20.997 398.804,21.535 398.624,21.535 398.405 C 21.535 398.185,22.253 398.006,23.131 398.006 C 24.008 398.006,24.726 398.185,24.726 398.405 C 24.726 398.670,83.616 398.804,200.598 398.804 C 303.820 398.804,376.471 398.656,376.471 398.447 C 376.471 398.250,377.188 398.021,378.066 397.938 C 379.173 397.832,379.661 397.941,379.661 398.295 C 379.661 398.594,380.153 398.804,380.857 398.804 C 381.655 398.804,382.054 398.604,382.054 398.205 C 382.054 397.833,382.430 397.607,383.051 397.607 C 383.599 397.607,384.048 397.440,384.048 397.235 C 384.048 397.031,384.407 396.749,384.845 396.610 C 385.284 396.471,385.643 396.117,385.643 395.825 C 385.643 395.532,386.181 395.105,386.839 394.875 C 388.327 394.357,388.357 393.900,386.939 393.340 L 385.842 392.906 386.906 392.864 C 387.491 392.841,388.040 393.033,388.126 393.291 C 388.375 394.039,389.324 393.214,389.118 392.428 C 388.984 391.914,389.122 391.775,389.637 391.910 C 390.515 392.139,391.119 391.254,390.392 390.805 C 390.096 390.622,389.993 390.333,390.163 390.163 C 390.333 389.993,390.634 390.116,390.833 390.437 C 391.126 390.912,391.288 390.925,391.705 390.508 C 392.121 390.092,392.108 389.930,391.633 389.636 C 391.313 389.438,391.189 389.137,391.359 388.966 C 391.529 388.796,391.818 388.899,392.001 389.195 C 392.476 389.963,393.300 389.314,393.010 388.401 C 392.842 387.870,392.958 387.637,393.393 387.637 C 393.737 387.637,394.018 387.458,394.018 387.238 C 394.018 387.019,394.375 386.839,394.811 386.839 C 395.303 386.839,395.988 386.230,396.619 385.231 C 397.177 384.346,397.987 383.269,398.418 382.838 C 398.850 382.407,399.202 381.785,399.202 381.456 C 399.202 381.127,399.382 380.857,399.601 380.857 C 399.821 380.857,400.000 380.319,400.000 379.661 C 400.000 379.003,399.821 378.465,399.601 378.465 C 399.382 378.465,399.202 377.836,399.202 377.069 C 399.202 376.301,399.382 375.673,399.601 375.673 C 399.866 375.673,400.000 316.717,400.000 199.601 C 400.000 82.486,399.866 23.529,399.601 23.529 C 399.382 23.529,399.202 22.812,399.202 21.934 C 399.202 21.057,399.382 20.339,399.601 20.339 C 399.821 20.339,400.000 19.801,400.000 19.143 C 400.000 18.485,399.840 17.946,399.644 17.946 C 399.449 17.946,399.176 17.498,399.039 16.949 C 398.901 16.401,398.628 15.952,398.431 15.952 C 398.235 15.952,397.536 15.078,396.879 14.009 C 395.904 12.426,395.415 12.016,394.232 11.794 C 393.012 11.565,392.822 11.395,393.034 10.725 C 393.376 9.648,391.361 7.512,390.823 8.382 C 390.630 8.695,390.333 8.811,390.163 8.641 C 389.993 8.471,390.096 8.182,390.392 7.999 C 391.015 7.614,390.637 6.780,389.840 6.780 C 389.542 6.780,389.196 7.004,389.070 7.278 C 388.944 7.552,388.943 7.368,389.067 6.868 C 389.309 5.897,387.897 4.008,386.919 3.995 C 386.634 3.991,385.754 3.360,384.964 2.592 C 384.173 1.825,383.195 1.196,382.790 1.196 C 382.385 1.196,382.054 0.927,382.054 0.598 C 382.054 0.199,381.655 0.000,380.857 0.000 C 380.153 0.000,379.661 0.209,379.661 0.509 C 379.661 0.862,379.173 0.972,378.066 0.866 C 377.188 0.782,376.471 0.553,376.471 0.357 C 376.471 0.147,303.820 0.000,200.598 0.000 C 83.616 0.000,24.726 0.134,24.726 0.399 C 24.726 0.618,24.008 0.798,23.131 0.798 C 22.253 0.798,21.535 0.618,21.535 0.399 C 21.535 0.179,20.997 0.000,20.339 0.000 C 19.681 0.000,19.143 0.169,19.143 0.376 M383.649 3.404 C 383.649 3.506,383.290 3.589,382.851 3.589 C 382.400 3.589,382.054 3.323,382.054 2.977 C 382.054 2.488,382.215 2.451,382.851 2.792 C 383.290 3.026,383.649 3.302,383.649 3.404 M112.926 51.318 C 117.214 53.035,117.248 53.201,117.248 72.582 C 117.248 90.714,117.248 90.715,114.578 92.758 L 113.061 93.918 95.382 93.918 C 79.005 93.918,77.665 93.867,77.192 93.220 C 76.911 92.836,76.522 92.517,76.327 92.510 C 74.509 92.446,74.383 91.241,74.265 72.820 L 74.153 55.310 75.185 53.751 C 77.172 50.748,77.434 50.708,95.406 50.676 C 109.361 50.651,111.450 50.728,112.926 51.318 M135.904 114.810 C 138.039 117.100,138.082 117.556,137.917 136.590 L 137.787 151.745 136.626 153.261 C 134.503 156.037,135.681 155.936,105.933 155.902 C 76.529 155.869,77.431 155.943,75.405 153.385 L 74.177 151.834 74.177 134.396 C 74.177 114.636,74.109 115.004,78.152 113.184 C 78.488 113.033,91.253 112.943,106.519 112.985 L 134.274 113.061 135.904 114.810 M174.676 175.311 C 176.509 175.947,177.866 176.904,177.866 177.558 C 177.866 177.759,178.136 178.193,178.465 178.522 C 178.978 179.035,179.063 181.573,179.063 196.411 C 179.063 211.249,178.978 213.787,178.465 214.300 C 178.136 214.629,177.866 215.058,177.866 215.254 C 177.866 216.248,175.574 217.549,173.480 217.743 C 172.273 217.855,150.289 217.900,124.626 217.843 L 77.965 217.740 76.171 216.195 L 74.377 214.650 74.377 196.490 L 74.377 178.329 75.374 177.251 C 77.853 174.569,74.543 174.735,126.221 174.710 C 167.538 174.690,173.087 174.759,174.676 175.311 M238.183 237.894 C 240.728 239.624,240.666 239.186,240.807 256.231 C 240.958 274.602,240.837 276.397,239.349 277.805 C 236.920 280.103,242.312 279.960,157.824 279.960 C 73.658 279.960,78.016 280.081,75.697 277.689 L 74.377 276.327 74.265 258.769 C 74.140 239.106,74.066 239.656,77.082 237.724 L 78.365 236.903 157.535 236.896 L 236.704 236.889 238.183 237.894 M319.774 299.268 C 320.374 299.578,321.352 300.420,321.948 301.139 L 323.031 302.447 323.031 320.528 C 323.031 336.232,322.952 338.639,322.433 338.839 C 322.104 338.965,321.834 339.323,321.834 339.634 C 321.834 339.945,321.403 340.363,320.876 340.564 C 320.349 340.764,319.800 341.118,319.656 341.351 C 319.120 342.218,78.579 341.910,77.260 341.041 C 76.652 340.640,75.710 339.709,75.166 338.972 L 74.177 337.632 74.177 320.239 L 74.177 302.847 75.158 301.518 C 75.698 300.786,76.640 299.867,77.252 299.475 C 78.784 298.494,317.882 298.289,319.774 299.268 M383.250 396.012 C 382.477 396.512,382.054 396.512,382.054 396.012 C 382.054 395.793,382.458 395.616,382.951 395.619 C 383.677 395.624,383.734 395.699,383.250 396.012 " stroke="none" fill="#ffffff" fill-rule="evenodd"></path><path id="path1" d="M77.692 53.364 C 75.928 54.433,75.771 56.052,75.795 72.859 C 75.819 89.435,75.952 90.693,77.767 91.609 C 78.795 92.128,111.256 92.383,113.105 91.887 C 115.510 91.241,115.653 90.146,115.653 72.414 C 115.653 54.896,115.687 55.191,113.485 53.349 C 112.268 52.330,79.376 52.344,77.692 53.364 M79.015 114.856 C 75.867 115.599,75.988 114.907,75.841 132.912 C 75.709 149.175,75.965 153.141,77.148 153.141 C 77.435 153.141,77.892 153.410,78.166 153.739 C 79.072 154.831,132.452 154.618,134.236 153.515 C 136.063 152.386,136.051 152.525,135.913 133.307 L 135.793 116.465 134.797 115.760 C 134.250 115.372,133.173 114.931,132.405 114.779 C 130.458 114.394,80.665 114.466,79.015 114.856 M77.445 177.464 C 76.939 177.886,76.355 178.821,76.149 179.541 C 75.636 181.329,75.665 211.559,76.181 213.418 C 76.995 216.350,73.587 216.174,127.157 216.057 L 175.011 215.952 176.040 214.985 L 177.069 214.018 177.069 196.357 L 177.069 178.696 175.976 177.683 L 174.884 176.670 126.624 176.683 C 79.600 176.696,78.341 176.716,77.445 177.464 M78.714 238.760 C 78.247 238.851,77.440 239.379,76.919 239.934 L 75.972 240.941 75.972 257.759 C 75.972 276.362,75.970 276.336,77.986 277.526 L 79.408 278.365 157.701 278.365 C 226.808 278.365,236.052 278.295,236.491 277.767 C 236.764 277.438,237.232 277.168,237.531 277.168 C 239.071 277.168,239.282 274.907,239.282 258.425 C 239.282 240.599,239.217 240.113,236.686 239.055 C 235.391 238.514,81.434 238.226,78.714 238.760 M78.765 300.593 C 75.862 301.327,75.682 302.664,75.845 322.324 L 75.972 337.769 77.078 338.875 L 78.184 339.980 198.802 339.980 L 319.420 339.980 320.328 339.072 L 321.236 338.164 321.348 320.884 C 321.469 302.192,321.446 301.970,319.315 300.958 C 317.961 300.316,81.283 299.956,78.765 300.593 " stroke="none" fill="#0089cd" fill-rule="evenodd"></path><path id="path2" d="M77.085 53.141 C 74.969 55.455,74.975 55.399,74.975 72.578 C 74.975 95.109,72.748 92.921,95.687 92.921 C 113.890 92.921,114.217 92.878,115.440 90.301 C 116.297 88.495,116.358 56.938,115.508 54.904 C 114.371 52.183,114.825 52.243,95.398 52.243 L 77.906 52.243 77.085 53.141 M113.485 53.349 C 115.687 55.191,115.653 54.896,115.653 72.414 C 115.653 90.146,115.510 91.241,113.105 91.887 C 111.256 92.383,78.795 92.128,77.767 91.609 C 75.952 90.693,75.819 89.435,75.795 72.859 C 75.771 56.052,75.928 54.433,77.692 53.364 C 79.376 52.344,112.268 52.330,113.485 53.349 M79.339 114.032 C 75.023 115.365,74.994 115.500,74.984 134.448 C 74.974 151.776,75.034 152.277,77.321 153.905 C 78.477 154.728,78.759 154.736,106.083 154.736 L 133.679 154.736 134.999 153.416 C 136.811 151.604,136.857 151.047,136.714 132.930 C 136.576 115.559,136.637 115.938,133.763 114.457 C 132.473 113.792,81.405 113.393,79.339 114.032 M132.405 114.779 C 133.173 114.931,134.250 115.372,134.797 115.760 L 135.793 116.465 135.913 133.307 C 136.051 152.525,136.063 152.386,134.236 153.515 C 132.452 154.618,79.072 154.831,78.166 153.739 C 77.892 153.410,77.435 153.141,77.148 153.141 C 75.965 153.141,75.709 149.175,75.841 132.912 C 75.988 114.907,75.867 115.599,79.015 114.856 C 80.665 114.466,130.458 114.394,132.405 114.779 M78.756 176.209 C 75.075 177.405,74.975 177.942,74.975 196.613 C 74.975 214.662,75.005 214.858,77.941 216.258 C 80.047 217.263,173.176 217.333,175.112 216.332 C 177.884 214.898,177.863 215.047,177.865 196.330 C 177.866 178.528,177.842 178.285,175.945 176.869 C 174.864 176.063,81.164 175.426,78.756 176.209 M175.976 177.683 L 177.069 178.696 177.069 196.357 L 177.069 214.018 176.040 214.985 L 175.011 215.952 127.157 216.057 C 73.587 216.174,76.995 216.350,76.181 213.418 C 75.665 211.559,75.636 181.329,76.149 179.541 C 77.038 176.440,72.481 176.698,126.624 176.683 L 174.884 176.670 175.976 177.683 M78.838 238.092 C 75.088 239.218,74.975 239.813,74.975 258.425 C 74.975 276.184,75.020 276.508,77.691 278.066 C 79.480 279.110,235.507 279.154,237.272 278.111 C 239.905 276.557,239.880 276.741,239.880 258.194 L 239.880 241.413 238.776 239.966 C 238.074 239.045,237.130 238.367,236.184 238.105 C 234.354 237.596,80.530 237.584,78.838 238.092 M236.686 239.055 C 239.217 240.113,239.282 240.599,239.282 258.425 C 239.282 274.907,239.071 277.168,237.531 277.168 C 237.232 277.168,236.764 277.438,236.491 277.767 C 236.052 278.295,226.808 278.365,157.701 278.365 L 79.408 278.365 77.986 277.526 C 75.970 276.336,75.972 276.362,75.972 257.759 L 75.972 240.941 76.919 239.934 C 77.440 239.379,78.247 238.851,78.714 238.760 C 81.434 238.226,235.391 238.514,236.686 239.055 M77.889 300.485 C 75.059 301.716,74.975 302.282,74.975 320.239 C 74.975 339.281,74.979 339.301,79.209 340.508 C 82.131 341.343,316.348 341.167,318.809 340.329 C 322.328 339.130,322.230 339.701,322.232 320.400 C 322.233 301.780,322.230 301.754,319.672 300.540 C 317.762 299.633,79.972 299.580,77.889 300.485 M319.315 300.958 C 321.446 301.970,321.469 302.192,321.348 320.884 L 321.236 338.164 320.328 339.072 L 319.420 339.980 198.802 339.980 L 78.184 339.980 77.078 338.875 L 75.972 337.769 75.845 322.324 C 75.682 302.664,75.862 301.327,78.765 300.593 C 81.283 299.956,317.961 300.316,319.315 300.958 " stroke="none" fill="#51abdc" fill-rule="evenodd"></path><path id="path3" d="M78.493 51.837 C 74.722 52.975,74.576 53.742,74.576 72.469 C 74.576 95.484,72.399 93.320,95.550 93.320 C 118.839 93.320,116.519 95.716,116.363 71.824 L 116.251 54.688 115.078 53.463 C 114.432 52.789,113.265 52.061,112.485 51.844 C 110.783 51.371,80.057 51.364,78.493 51.837 M113.927 52.923 C 115.986 54.272,116.052 54.878,116.052 72.609 C 116.052 95.247,118.384 92.921,95.687 92.921 C 72.748 92.921,74.975 95.109,74.975 72.578 C 74.975 55.399,74.969 55.455,77.085 53.141 L 77.906 52.243 95.398 52.243 C 111.207 52.243,112.989 52.309,113.927 52.923 M77.865 114.140 C 74.588 115.818,74.576 115.888,74.576 134.539 C 74.576 152.584,74.616 152.876,77.292 154.437 C 79.332 155.627,132.718 155.498,134.660 154.298 C 137.148 152.760,137.188 152.439,137.188 134.332 C 137.188 115.598,137.178 115.536,133.875 114.037 C 131.084 112.770,80.359 112.863,77.865 114.140 M133.763 114.457 C 136.637 115.938,136.576 115.559,136.714 132.930 C 136.857 151.047,136.811 151.604,134.999 153.416 L 133.679 154.736 106.083 154.736 C 78.759 154.736,78.477 154.728,77.321 153.905 C 75.034 152.277,74.974 151.776,74.984 134.448 C 74.994 115.500,75.023 115.365,79.339 114.032 C 81.405 113.393,132.473 113.792,133.763 114.457 M78.280 175.916 C 77.559 176.124,76.512 176.924,75.887 177.743 L 74.776 179.199 74.663 195.894 C 74.538 214.576,74.525 214.477,77.318 216.375 L 78.749 217.348 126.620 217.348 L 174.491 217.348 175.937 216.365 C 178.555 214.586,178.665 213.762,178.655 196.041 C 178.647 181.611,178.591 180.336,177.891 178.795 C 177.097 177.045,175.453 175.656,174.589 176.003 C 174.222 176.150,174.246 176.221,174.676 176.253 C 175.452 176.311,176.829 177.470,177.409 178.555 C 178.318 180.254,178.023 212.898,177.085 214.437 C 175.450 217.118,178.843 216.949,126.653 216.949 C 73.649 216.949,77.302 217.155,75.734 214.081 C 74.684 212.023,74.559 181.693,75.590 179.171 C 76.972 175.788,72.220 176.098,126.221 175.868 L 174.078 175.663 126.820 175.605 C 98.714 175.569,79.042 175.696,78.280 175.916 M78.764 237.580 C 74.676 238.604,74.533 239.342,74.663 258.742 L 74.776 275.437 75.912 276.926 C 77.712 279.286,73.476 279.176,158.190 279.066 L 237.349 278.963 238.681 277.511 C 240.489 275.538,240.558 274.686,240.407 256.431 L 240.279 241.077 239.321 239.800 C 237.294 237.098,243.456 237.283,157.420 237.334 C 114.598 237.360,79.202 237.471,78.764 237.580 M236.184 238.105 C 237.130 238.367,238.074 239.045,238.776 239.966 L 239.880 241.413 239.880 258.194 C 239.880 276.741,239.905 276.557,237.272 278.111 C 235.507 279.154,79.480 279.110,77.691 278.066 C 75.020 276.508,74.975 276.184,74.975 258.425 C 74.975 239.813,75.088 239.218,78.838 238.092 C 80.530 237.584,234.354 237.596,236.184 238.105 M78.777 299.641 C 77.691 299.968,76.785 300.655,75.886 301.835 L 74.576 303.552 74.576 320.116 C 74.576 339.178,74.565 339.114,78.099 340.633 C 80.896 341.836,317.065 341.791,319.424 340.587 C 322.761 338.885,322.636 339.679,322.603 320.377 C 322.570 301.044,322.663 301.641,319.439 300.000 L 317.677 299.103 199.018 299.133 C 108.185 299.157,79.988 299.276,78.777 299.641 M319.672 300.540 C 322.230 301.754,322.233 301.780,322.232 320.400 C 322.230 339.701,322.328 339.130,318.809 340.329 C 316.348 341.167,82.131 341.343,79.209 340.508 C 74.979 339.301,74.975 339.281,74.975 320.239 C 74.975 302.282,75.059 301.716,77.889 300.485 C 79.972 299.580,317.762 299.633,319.672 300.540 " stroke="none" fill="#85c7e7" fill-rule="evenodd"></path><path id="path4" d="M77.889 51.448 C 76.869 51.901,75.815 52.799,75.185 53.751 L 74.153 55.310 74.265 72.820 C 74.383 91.241,74.509 92.446,76.327 92.510 C 76.522 92.517,76.911 92.836,77.192 93.220 C 77.665 93.867,79.005 93.918,95.382 93.918 L 113.061 93.918 114.578 92.758 C 117.248 90.715,117.248 90.714,117.248 72.582 C 117.248 48.826,119.051 50.634,95.406 50.676 C 80.847 50.702,79.426 50.765,77.889 51.448 M112.485 51.844 C 113.265 52.061,114.432 52.789,115.078 53.463 L 116.251 54.688 116.363 71.824 C 116.519 95.716,118.839 93.320,95.550 93.320 C 72.399 93.320,74.576 95.484,74.576 72.469 C 74.576 53.742,74.722 52.975,78.493 51.837 C 80.057 51.364,110.783 51.371,112.485 51.844 M78.152 113.184 C 74.109 115.004,74.177 114.636,74.177 134.396 L 74.177 151.834 75.405 153.385 C 77.431 155.943,76.529 155.869,105.933 155.902 C 135.681 155.936,134.503 156.037,136.626 153.261 L 137.787 151.745 137.917 136.590 C 138.082 117.556,138.039 117.100,135.904 114.810 L 134.274 113.061 106.519 112.985 C 91.253 112.943,78.488 113.033,78.152 113.184 M133.875 114.037 C 137.178 115.536,137.188 115.598,137.188 134.332 C 137.188 152.439,137.148 152.760,134.660 154.298 C 132.718 155.498,79.332 155.627,77.292 154.437 C 74.616 152.876,74.576 152.584,74.576 134.539 C 74.576 115.888,74.588 115.818,77.865 114.140 C 80.359 112.863,131.084 112.770,133.875 114.037 M77.966 175.453 C 77.089 175.849,75.922 176.658,75.374 177.251 L 74.377 178.329 74.377 196.490 L 74.377 214.650 76.171 216.195 L 77.965 217.740 124.626 217.843 C 150.289 217.900,172.273 217.855,173.480 217.743 C 175.574 217.549,177.866 216.248,177.866 215.254 C 177.866 215.058,178.136 214.629,178.465 214.300 C 178.978 213.787,179.063 211.249,179.063 196.411 C 179.063 181.573,178.978 179.035,178.465 178.522 C 178.136 178.193,177.866 177.759,177.866 177.558 C 177.866 176.904,176.509 175.947,174.676 175.311 C 171.717 174.283,80.260 174.417,77.966 175.453 M176.023 176.402 C 178.544 178.054,178.646 178.812,178.655 196.041 C 178.665 213.762,178.555 214.586,175.937 216.365 L 174.491 217.348 126.620 217.348 L 78.749 217.348 77.318 216.375 C 74.525 214.477,74.538 214.576,74.663 195.894 L 74.776 179.199 75.887 177.743 C 76.509 176.928,77.562 176.122,78.280 175.913 C 81.043 175.107,174.763 175.576,176.023 176.402 M77.082 237.724 C 74.066 239.656,74.140 239.106,74.265 258.769 L 74.377 276.327 75.697 277.689 C 78.016 280.081,73.658 279.960,157.824 279.960 C 242.312 279.960,236.920 280.103,239.349 277.805 C 240.837 276.397,240.958 274.602,240.807 256.231 C 240.666 239.186,240.728 239.624,238.183 237.894 L 236.704 236.889 157.535 236.896 L 78.365 236.903 77.082 237.724 M236.820 237.905 C 237.668 238.245,238.794 239.097,239.321 239.800 L 240.279 241.077 240.407 256.431 C 240.558 274.686,240.489 275.538,238.681 277.511 L 237.349 278.963 158.190 279.066 C 73.476 279.176,77.712 279.286,75.912 276.926 L 74.776 275.437 74.663 258.742 C 74.533 239.342,74.676 238.604,78.764 237.580 C 81.144 236.984,235.311 237.301,236.820 237.905 M77.252 299.475 C 76.640 299.867,75.698 300.786,75.158 301.518 L 74.177 302.847 74.177 320.239 L 74.177 337.632 75.166 338.972 C 75.710 339.709,76.652 340.640,77.260 341.041 C 78.579 341.910,319.120 342.218,319.656 341.351 C 319.800 341.118,320.349 340.764,320.876 340.564 C 321.403 340.363,321.834 339.945,321.834 339.634 C 321.834 339.323,322.104 338.965,322.433 338.839 C 322.952 338.639,323.031 336.232,323.031 320.528 L 323.031 302.447 321.948 301.139 C 321.352 300.420,320.374 299.578,319.774 299.268 C 317.882 298.289,78.784 298.494,77.252 299.475 M319.439 300.000 C 322.663 301.641,322.570 301.044,322.603 320.377 C 322.636 339.679,322.761 338.885,319.424 340.587 C 317.065 341.791,80.896 341.836,78.099 340.633 C 74.565 339.114,74.576 339.178,74.576 320.116 L 74.576 303.552 75.886 301.835 C 78.084 298.952,68.300 299.167,199.018 299.133 L 317.677 299.103 319.439 300.000 " stroke="none" fill="#c0e2f3" fill-rule="evenodd"></path></g></svg>