<?xml version="1.0" encoding="UTF-8" standalone="no"?>
<svg id="svg2" xmlns="http://www.w3.org/2000/svg" height="282" width="357" version="1.1" xmlns:xlink="http://www.w3.org/1999/xlink">
<defs id="defs4160">
<linearGradient id="a" y2="396.7" gradientUnits="userSpaceOnUse" x2="728.44" y1="635.54" x1="728.44">
<stop id="stop4750" style="stop-color:#0818f4" offset="0"/>
<stop id="stop4752" style="stop-color:#000001" offset="1"/>
</linearGradient>
</defs>
<g id="layer3">
<rect id="rect4726" ry="52.879" style="fill-rule:evenodd;fill:url(#a)" transform="translate(-549.82 -375.11)" height="238.84" width="313.85" y="396.69" x="571.39"/>
<rect id="rect4724" ry="71.3" style="stroke:#000000;stroke-width:5.9816;fill:none" transform="translate(-549.82 -375.11)" height="276.02" width="351.02" y="378.11" x="552.81"/>
</g>
<g id="layer1" transform="translate(-549.82 -375.11)">
<path id="path44341-7" style="fill:#ffffff" d="m831.57 537.2v56.706h26.589v-13.736h-11.28v-42.97h-15.309"/>
<path id="path44343-1" style="fill:#ffffff" d="m752.62 415.46h27.463v13.076h-12.763v8.682h12.437v13.025h-12.437v8.023h12.763v13.972h-27.463"/>
<path id="path44353-6" style="fill:#ffffff" d="m710.24 415.46v56.778h14.516v-22.248h9.056v22.248h16.621v-56.778h-16.621v20.958h-9.056v-20.958h-14.516"/>
<path id="path44357-4" style="fill:#ffffff" d="m712.24 536.93v57.061h16.658v-15.834l9.094 15.834h15.723v-57.061h-15.723v20.47l-9.094-20.47h-16.658"/>
<path id="path44359-2" style="fill:#ffffff" d="m682.92 430.53h-8.6v-15.064h33.772v15.064h-8.4718v41.704l-16.7-0.005"/>
<path id="path44361-3" style="fill:#ffffff" d="m713.85 476.82h-18.531l-13.247 56.795h16.747l1.566-10.072h7.466l1.642 10.072h16.33zm-12.793 33.067 3.1561-13.122 3.1151 13.122h-6.2712"/>
<path id="path44363-2" style="fill:#ffffff" d="m589.66 476.84h14.902l4.681 20.671 5.9514-20.671h11.829l5.5069 20.671 4.506-20.671 15.002-0.00011-11.448 56.778h-15.731l-3.349-18.5h-1.1549l-3.2161 18.5h-16.212"/>
<path id="path44367-1" style="fill:#ffffff" d="m624.35 578.22v13.745c-2.6827 1.5605-9.1064 1.9718-12.232 1.9718-15.604 0-21.166-15.449-21.166-27.153 0-12.506 5.3408-29.717 22.397-29.717 4.7747 0 7.2616 0.1237 11.101 2.4199l-0.1 13.696c-11.775-3.3431-14.825 2.6552-14.825 12.62 0 9.6752 3.9941 15.836 14.825 12.417"/>
<path id="path44371-8" style="fill:#ffffff" d="m867.85 492.61c0-8.953-7.474-15.597-19.691-15.728-0.0866 0-0.25996-0.0653-0.3466-0.0653h-20.247v56.795h16.348v-15.344l4.605 15.344h20.387l-9.012-27.722c5.7798-1.1301 7.8623-8.1898 7.957-13.28zm-24.737 7.9946v-11.45c8.6922 0.7931 9.1225 9.1835-0.054 11.559"/>
<path id="path4771" d="m653.62 476.84h27.463v13.076h-12.763v8.682h12.437v13.025h-12.437v8.023h12.763v13.972h-27.463" style="fill:#ffffff"/>
<path id="path4785" d="m797.14 476.82h27.463v13.076h-12.763v8.682h12.437v13.025h-12.437v8.023h12.763v13.972h-27.463" style="fill:#ffffff"/>
<path id="path4787" d="m754.27 476.82v56.778h16.116v-22.248h7.4562v22.248h16.621v-56.778h-16.621v20.958h-7.4562v-20.958h-16.116" style="fill:#ffffff"/>
<path id="path4789" d="m727.94 491.9h-8.6v-15.064h33.772v15.064h-8.4718v41.704l-16.7-0.005" style="fill:#ffffff"/>
<path id="path4791" d="m626.56 537.14v56.778h15.872v-22.248h8.1151v22.248h16.913v-56.778h-16.913v20.958h-8.1151v-20.958h-15.872" style="fill:#ffffff"/>
<path id="path4793" d="m699.66 537.23h-18.531l-13.247 56.795h16.747l1.566-10.072h7.466l1.642 10.072h16.33zm-12.793 33.067 3.1561-13.122 3.1151 13.122h-6.2712" style="fill:#ffffff"/>
<path id="path4795" d="m756.24 536.93v57.061h16.658v-15.834l9.094 15.834h15.723v-57.061h-15.723v20.47l-9.094-20.47h-16.658" style="fill:#ffffff"/>
<path id="path4797" style="fill:#ffffff" d="m801.1 537.24h28.524v13.076h-12.062v8.682h11.723v13.025h-11.723v8.023h12.062v13.972h-28.524"/>
</g>
</svg>
