<svg id="svg" version="1.1" xmlns="http://www.w3.org/2000/svg" xmlns:xlink="http://www.w3.org/1999/xlink" width="400" height="400" viewBox="0, 0, 400,400"><g id="svgg"><path id="path0" d="M326.917 10.172 C 313.287 11.676,301.554 17.258,292.142 26.716 C 273.870 45.078,270.501 74.062,284.055 96.301 C 284.575 97.155,285.000 97.905,285.000 97.968 C 285.000 98.032,276.267 106.816,265.594 117.490 L 246.188 136.895 245.302 136.261 C 234.542 128.559,221.795 123.589,208.958 122.088 L 208.000 121.976 208.000 105.857 L 208.000 89.738 209.125 89.185 C 233.681 77.120,235.819 42.848,212.969 27.561 C 200.611 19.293,183.828 19.762,171.913 28.708 C 151.195 44.264,153.368 76.071,176.001 88.540 C 178.321 89.818,182.190 91.312,184.544 91.839 L 185.500 92.053 185.500 107.265 C 185.500 121.610,185.483 122.482,185.208 122.561 C 185.048 122.606,184.467 122.730,183.917 122.836 C 174.266 124.695,163.742 129.296,154.854 135.541 L 152.957 136.874 133.879 117.796 L 114.801 98.718 116.001 96.734 C 135.628 64.299,118.171 21.652,81.489 12.425 C 41.226 2.296,4.188 36.874,11.607 77.667 C 18.718 116.770,63.396 136.631,97.205 115.717 L 98.706 114.789 117.790 133.873 L 136.874 152.957 135.541 154.854 C 129.323 163.703,124.684 174.314,122.836 183.917 C 122.730 184.467,122.606 185.048,122.560 185.209 C 122.482 185.486,121.603 185.499,106.317 185.459 L 90.158 185.417 89.407 183.167 C 80.405 156.183,44.475 150.489,27.277 173.319 C 18.266 185.281,17.777 202.011,26.075 214.474 C 41.336 237.399,75.714 235.119,87.866 210.375 L 89.032 208.000 105.504 208.000 L 121.976 208.000 122.088 208.958 C 123.589 221.795,128.559 234.542,136.261 245.302 L 136.895 246.188 117.490 265.594 C 106.816 276.267,98.034 285.000,97.974 285.000 C 97.913 285.000,97.051 284.504,96.057 283.899 C 59.038 261.333,10.944 287.688,10.047 331.031 C 9.045 379.367,64.263 406.815,102.167 376.823 C 124.502 359.151,130.046 325.941,114.640 302.105 L 113.988 301.096 133.440 281.643 L 152.892 262.191 153.821 262.867 C 162.552 269.228,172.891 273.923,182.917 276.079 L 185.417 276.617 185.417 288.161 L 185.417 299.706 183.104 300.505 C 158.638 308.959,151.358 340.158,169.481 358.889 C 183.180 373.047,206.267 373.200,220.241 359.225 C 236.153 343.313,233.532 316.684,214.833 304.279 C 213.228 303.213,208.639 300.833,208.191 300.833 C 208.049 300.833,208.000 297.767,208.000 289.008 L 208.000 277.182 208.542 277.106 C 223.299 275.034,233.991 270.889,245.380 262.826 L 246.178 262.261 265.922 282.005 C 276.782 292.865,285.667 301.806,285.667 301.876 C 285.667 301.946,285.134 302.883,284.483 303.960 C 264.092 337.685,284.190 382.055,323.000 388.992 C 362.826 396.111,396.948 360.902,388.650 321.250 C 380.693 283.227,336.208 264.207,303.425 284.811 L 301.769 285.852 281.981 266.051 L 262.194 246.250 263.441 244.500 C 270.341 234.823,275.126 222.702,276.825 210.602 C 277.013 209.264,277.167 208.131,277.167 208.085 C 277.167 208.038,282.029 208.000,287.971 208.000 L 298.776 208.000 299.308 209.401 C 308.352 233.211,338.984 239.912,357.309 222.091 C 371.813 207.986,371.770 184.791,357.213 170.819 C 338.755 153.102,307.878 160.079,299.247 183.917 L 298.704 185.417 287.660 185.417 L 276.616 185.417 276.223 183.508 C 274.146 173.412,269.312 162.667,262.867 153.821 L 262.191 152.892 281.646 133.437 L 301.102 113.981 302.676 114.968 C 315.874 123.240,332.866 125.547,348.310 121.165 C 367.795 115.636,383.351 99.256,387.728 79.658 C 395.124 46.540,373.497 15.160,340.000 10.407 C 337.775 10.091,329.068 9.935,326.917 10.172 M338.333 27.080 C 361.715 30.725,376.923 53.330,371.333 76.133 C 365.223 101.060,337.856 113.808,314.738 102.494 C 292.307 91.517,285.492 62.555,300.616 42.478 C 309.256 31.008,324.255 24.885,338.333 27.080 M72.750 27.741 C 99.965 31.648,115.344 60.559,103.252 85.083 C 88.593 114.813,46.080 114.714,31.488 84.917 C 18.965 59.342,35.984 30.003,64.833 27.434 C 66.213 27.311,71.065 27.499,72.750 27.741 M71.505 292.757 C 105.824 297.005,118.997 340.367,92.776 362.777 C 66.791 384.985,26.813 366.701,26.758 332.583 C 26.719 308.442,47.658 289.806,71.505 292.757 M339.167 293.582 C 371.318 298.675,384.392 337.570,361.844 361.051 C 340.601 383.173,302.723 373.436,294.590 343.763 C 286.977 315.985,310.861 289.098,339.167 293.582 " stroke="none" fill="#04a4e4" fill-rule="evenodd"></path><path id="path1" d="" stroke="none" fill="#08a4e4" fill-rule="evenodd"></path><path id="path2" d="" stroke="none" fill="#08a4e4" fill-rule="evenodd"></path><path id="path3" d="" stroke="none" fill="#08a4e4" fill-rule="evenodd"></path><path id="path4" d="" stroke="none" fill="#08a4e4" fill-rule="evenodd"></path></g></svg>