<svg id="svg" version="1.1" xmlns="http://www.w3.org/2000/svg" xmlns:xlink="http://www.w3.org/1999/xlink" width="400" height="400" viewBox="0, 0, 400,400"><g id="svgg"><path id="path0" d="M184.400 36.457 C 174.464 37.465,166.449 38.746,160.400 40.291 C 116.455 51.518,78.175 80.904,56.304 120.200 C 55.029 122.490,49.419 133.876,49.089 134.843 C 48.902 135.390,49.406 135.523,52.496 135.743 C 57.240 136.079,342.768 136.079,347.512 135.742 L 351.147 135.484 350.496 133.842 C 335.827 96.841,298.751 61.743,258.000 46.279 C 242.236 40.298,233.238 38.238,214.886 36.410 C 210.044 35.928,189.298 35.959,184.400 36.457 " stroke="none" fill="#fac91b" fill-rule="evenodd"></path><path id="path1" d="M188.600 16.400 C 188.460 16.627,186.470 16.800,184.000 16.800 C 181.530 16.800,179.540 16.973,179.400 17.200 C 179.264 17.420,177.813 17.600,176.176 17.600 C 174.459 17.600,173.200 17.769,173.200 18.000 C 173.200 18.222,172.133 18.400,170.800 18.400 C 169.467 18.400,168.400 18.578,168.400 18.800 C 168.400 19.020,167.500 19.200,166.400 19.200 C 165.300 19.200,164.400 19.380,164.400 19.600 C 164.400 19.820,163.500 20.000,162.400 20.000 C 161.300 20.000,160.400 20.180,160.400 20.400 C 160.400 20.620,159.590 20.800,158.600 20.800 C 157.610 20.800,156.800 20.980,156.800 21.200 C 156.800 21.420,156.080 21.600,155.200 21.600 C 154.320 21.600,153.600 21.780,153.600 22.000 C 153.600 22.220,153.060 22.400,152.400 22.400 C 151.740 22.400,151.200 22.580,151.200 22.800 C 151.200 23.020,150.480 23.200,149.600 23.200 C 148.720 23.200,148.000 23.380,148.000 23.600 C 148.000 23.820,147.460 24.000,146.800 24.000 C 146.140 24.000,145.600 24.180,145.600 24.400 C 145.600 24.620,145.225 24.800,144.766 24.800 C 143.494 24.800,138.800 26.125,138.800 26.484 C 138.800 26.658,138.260 26.800,137.600 26.800 C 136.940 26.800,136.400 26.980,136.400 27.200 C 136.400 27.420,136.038 27.600,135.595 27.600 C 135.152 27.600,134.477 27.759,134.095 27.953 C 133.713 28.148,132.860 28.529,132.200 28.800 C 131.540 29.071,130.687 29.452,130.305 29.647 C 129.923 29.841,129.338 30.000,129.005 30.000 C 128.672 30.000,128.400 30.180,128.400 30.400 C 128.400 30.620,127.950 30.800,127.400 30.800 C 126.850 30.800,126.400 30.980,126.400 31.200 C 126.400 31.420,126.040 31.600,125.600 31.600 C 125.160 31.600,124.800 31.780,124.800 32.000 C 124.800 32.220,124.440 32.400,124.000 32.400 C 123.560 32.400,123.200 32.580,123.200 32.800 C 123.200 33.020,122.840 33.200,122.400 33.200 C 121.960 33.200,121.600 33.380,121.600 33.600 C 121.600 33.820,121.240 34.000,120.800 34.000 C 120.360 34.000,120.000 34.180,120.000 34.400 C 120.000 34.620,119.640 34.800,119.200 34.800 C 118.760 34.800,118.400 34.980,118.400 35.200 C 118.400 35.420,118.040 35.600,117.600 35.600 C 117.160 35.600,116.800 35.780,116.800 36.000 C 116.800 36.220,116.440 36.400,116.000 36.400 C 115.560 36.400,115.200 36.580,115.200 36.800 C 115.200 37.020,114.840 37.200,114.400 37.200 C 113.960 37.200,113.600 37.380,113.600 37.600 C 113.600 37.820,113.240 38.000,112.800 38.000 C 112.360 38.000,112.000 38.180,112.000 38.400 C 112.000 38.620,111.640 38.800,111.200 38.800 C 110.760 38.800,110.400 38.980,110.400 39.200 C 110.400 39.420,110.130 39.600,109.800 39.600 C 109.470 39.600,109.200 39.780,109.200 40.000 C 109.200 40.220,108.880 40.400,108.488 40.400 C 108.097 40.400,107.517 40.760,107.200 41.200 C 106.883 41.640,106.399 42.000,106.125 42.000 C 105.381 42.000,102.800 43.299,102.800 43.674 C 102.800 43.853,102.564 44.000,102.275 44.000 C 101.987 44.000,101.402 44.315,100.975 44.700 C 100.549 45.085,99.705 45.655,99.100 45.968 C 98.495 46.280,98.000 46.685,98.000 46.868 C 98.000 47.050,97.764 47.200,97.475 47.200 C 97.187 47.200,96.602 47.515,96.175 47.900 C 95.749 48.285,94.905 48.855,94.300 49.168 C 93.695 49.480,93.200 49.885,93.200 50.068 C 93.200 50.250,93.002 50.400,92.760 50.400 C 92.519 50.400,91.817 50.940,91.200 51.600 C 90.583 52.260,89.863 52.800,89.600 52.800 C 89.337 52.800,88.617 53.340,88.000 54.000 C 87.383 54.660,86.677 55.200,86.429 55.200 C 86.181 55.200,85.169 56.010,84.179 57.000 C 83.189 57.990,82.231 58.800,82.051 58.800 C 80.558 58.800,58.800 80.558,58.800 82.051 C 58.800 82.231,57.990 83.189,57.000 84.179 C 56.010 85.169,55.200 86.181,55.200 86.429 C 55.200 86.677,54.660 87.383,54.000 88.000 C 53.340 88.617,52.800 89.337,52.800 89.600 C 52.800 89.863,52.260 90.583,51.600 91.200 C 50.940 91.817,50.400 92.519,50.400 92.760 C 50.400 93.002,50.250 93.200,50.068 93.200 C 49.885 93.200,49.480 93.695,49.168 94.300 C 48.855 94.905,48.285 95.749,47.900 96.175 C 47.515 96.602,47.200 97.187,47.200 97.475 C 47.200 97.764,47.050 98.000,46.868 98.000 C 46.685 98.000,46.280 98.495,45.968 99.100 C 45.655 99.705,45.085 100.549,44.700 100.975 C 44.315 101.402,44.000 101.987,44.000 102.275 C 44.000 102.564,43.853 102.800,43.674 102.800 C 43.299 102.800,42.000 105.381,42.000 106.125 C 42.000 106.399,41.640 106.883,41.200 107.200 C 40.760 107.517,40.400 108.097,40.400 108.488 C 40.400 108.880,40.220 109.200,40.000 109.200 C 39.780 109.200,39.600 109.470,39.600 109.800 C 39.600 110.130,39.420 110.400,39.200 110.400 C 38.980 110.400,38.800 110.760,38.800 111.200 C 38.800 111.640,38.620 112.000,38.400 112.000 C 38.180 112.000,38.000 112.360,38.000 112.800 C 38.000 113.240,37.865 113.601,37.700 113.603 C 37.535 113.605,37.199 114.010,36.954 114.503 C 36.088 116.246,33.904 120.609,33.554 121.295 C 33.359 121.677,33.200 122.262,33.200 122.595 C 33.200 122.928,33.020 123.200,32.800 123.200 C 32.580 123.200,32.400 123.560,32.400 124.000 C 32.400 124.440,32.220 124.800,32.000 124.800 C 31.780 124.800,31.600 125.160,31.600 125.600 C 31.600 126.040,31.420 126.400,31.200 126.400 C 30.980 126.400,30.800 126.672,30.800 127.005 C 30.800 127.338,30.635 127.923,30.433 128.305 C 29.548 129.979,28.400 132.840,28.400 133.372 C 28.400 133.691,28.220 134.064,28.000 134.200 C 27.780 134.336,27.600 134.872,27.600 135.390 C 27.600 135.909,27.457 136.393,27.282 136.467 C 26.867 136.640,24.800 143.184,24.800 144.324 C 24.800 144.806,24.620 145.200,24.400 145.200 C 24.180 145.200,24.000 145.830,24.000 146.600 C 24.000 147.370,23.820 148.000,23.600 148.000 C 23.380 148.000,23.200 148.529,23.200 149.176 C 23.200 149.823,23.020 150.464,22.800 150.600 C 22.580 150.736,22.400 151.467,22.400 152.224 C 22.400 152.981,22.220 153.600,22.000 153.600 C 21.780 153.600,21.600 154.320,21.600 155.200 C 21.600 156.080,21.420 156.800,21.200 156.800 C 20.980 156.800,20.800 157.610,20.800 158.600 C 20.800 159.590,20.620 160.400,20.400 160.400 C 20.180 160.400,20.000 161.199,20.000 162.176 C 20.000 163.153,19.820 164.064,19.600 164.200 C 19.380 164.336,19.200 165.337,19.200 166.424 C 19.200 167.511,19.020 168.400,18.800 168.400 C 18.578 168.400,18.400 169.467,18.400 170.800 C 18.400 172.133,18.222 173.200,18.000 173.200 C 17.770 173.200,17.600 174.440,17.600 176.120 C 17.600 177.726,17.431 179.211,17.225 179.420 C 16.030 180.632,16.030 219.368,17.225 220.580 C 17.431 220.789,17.600 222.274,17.600 223.880 C 17.600 225.560,17.770 226.800,18.000 226.800 C 18.222 226.800,18.400 227.867,18.400 229.200 C 18.400 230.533,18.578 231.600,18.800 231.600 C 19.020 231.600,19.200 232.489,19.200 233.576 C 19.200 234.663,19.380 235.664,19.600 235.800 C 19.820 235.936,20.000 236.847,20.000 237.824 C 20.000 238.801,20.180 239.600,20.400 239.600 C 20.620 239.600,20.800 240.410,20.800 241.400 C 20.800 242.390,20.980 243.200,21.200 243.200 C 21.420 243.200,21.600 243.920,21.600 244.800 C 21.600 245.680,21.780 246.400,22.000 246.400 C 22.220 246.400,22.400 247.019,22.400 247.776 C 22.400 248.533,22.580 249.264,22.800 249.400 C 23.020 249.536,23.200 250.177,23.200 250.824 C 23.200 251.471,23.380 252.000,23.600 252.000 C 23.820 252.000,24.000 252.630,24.000 253.400 C 24.000 254.170,24.180 254.800,24.400 254.800 C 24.620 254.800,24.800 255.194,24.800 255.676 C 24.800 256.816,26.867 263.360,27.282 263.533 C 27.457 263.607,27.600 264.091,27.600 264.610 C 27.600 265.128,27.780 265.664,28.000 265.800 C 28.220 265.936,28.400 266.309,28.400 266.628 C 28.400 267.160,29.548 270.021,30.433 271.695 C 30.635 272.077,30.800 272.662,30.800 272.995 C 30.800 273.328,30.980 273.600,31.200 273.600 C 31.420 273.600,31.600 273.960,31.600 274.400 C 31.600 274.840,31.780 275.200,32.000 275.200 C 32.220 275.200,32.400 275.560,32.400 276.000 C 32.400 276.440,32.580 276.800,32.800 276.800 C 33.020 276.800,33.200 277.072,33.200 277.405 C 33.200 277.738,33.359 278.323,33.554 278.705 C 33.904 279.391,36.088 283.754,36.954 285.497 C 37.199 285.990,37.535 286.395,37.700 286.397 C 37.865 286.399,38.000 286.760,38.000 287.200 C 38.000 287.640,38.180 288.000,38.400 288.000 C 38.620 288.000,38.800 288.360,38.800 288.800 C 38.800 289.240,38.980 289.600,39.200 289.600 C 39.420 289.600,39.600 289.870,39.600 290.200 C 39.600 290.530,39.780 290.800,40.000 290.800 C 40.220 290.800,40.400 291.120,40.400 291.512 C 40.400 291.903,40.760 292.483,41.200 292.800 C 41.640 293.117,42.000 293.601,42.000 293.875 C 42.000 294.619,43.299 297.200,43.674 297.200 C 43.853 297.200,44.000 297.436,44.000 297.725 C 44.000 298.013,44.315 298.598,44.700 299.025 C 45.085 299.451,45.655 300.295,45.968 300.900 C 46.280 301.505,46.685 302.000,46.868 302.000 C 47.050 302.000,47.200 302.236,47.200 302.525 C 47.200 302.813,47.515 303.398,47.900 303.825 C 48.285 304.251,48.855 305.095,49.168 305.700 C 49.480 306.305,49.885 306.800,50.068 306.800 C 50.250 306.800,50.400 306.998,50.400 307.240 C 50.400 307.481,50.940 308.183,51.600 308.800 C 52.260 309.417,52.800 310.137,52.800 310.400 C 52.800 310.663,53.340 311.383,54.000 312.000 C 54.660 312.617,55.200 313.323,55.200 313.571 C 55.200 313.819,56.010 314.831,57.000 315.821 C 57.990 316.811,58.800 317.769,58.800 317.949 C 58.800 319.442,80.558 341.200,82.051 341.200 C 82.231 341.200,83.189 342.010,84.179 343.000 C 85.169 343.990,86.181 344.800,86.429 344.800 C 86.677 344.800,87.383 345.340,88.000 346.000 C 88.617 346.660,89.337 347.200,89.600 347.200 C 89.863 347.200,90.583 347.740,91.200 348.400 C 91.817 349.060,92.519 349.600,92.760 349.600 C 93.002 349.600,93.200 349.750,93.200 349.932 C 93.200 350.115,93.695 350.520,94.300 350.832 C 94.905 351.145,95.749 351.715,96.175 352.100 C 96.602 352.485,97.187 352.800,97.475 352.800 C 97.764 352.800,98.000 352.950,98.000 353.132 C 98.000 353.315,98.495 353.720,99.100 354.032 C 99.705 354.345,100.549 354.915,100.975 355.300 C 101.402 355.685,101.987 356.000,102.275 356.000 C 102.564 356.000,102.800 356.147,102.800 356.326 C 102.800 356.701,105.381 358.000,106.125 358.000 C 106.399 358.000,106.883 358.360,107.200 358.800 C 107.517 359.240,108.097 359.600,108.488 359.600 C 108.880 359.600,109.200 359.780,109.200 360.000 C 109.200 360.220,109.470 360.400,109.800 360.400 C 110.130 360.400,110.400 360.580,110.400 360.800 C 110.400 361.020,110.760 361.200,111.200 361.200 C 111.640 361.200,112.000 361.380,112.000 361.600 C 112.000 361.820,112.360 362.000,112.800 362.000 C 113.240 362.000,113.600 362.180,113.600 362.400 C 113.600 362.620,113.960 362.800,114.400 362.800 C 114.840 362.800,115.200 362.980,115.200 363.200 C 115.200 363.420,115.560 363.600,116.000 363.600 C 116.440 363.600,116.800 363.780,116.800 364.000 C 116.800 364.220,117.160 364.400,117.600 364.400 C 118.040 364.400,118.400 364.580,118.400 364.800 C 118.400 365.020,118.760 365.200,119.200 365.200 C 119.640 365.200,120.000 365.380,120.000 365.600 C 120.000 365.820,120.360 366.000,120.800 366.000 C 121.240 366.000,121.600 366.180,121.600 366.400 C 121.600 366.620,121.960 366.800,122.400 366.800 C 122.840 366.800,123.200 366.980,123.200 367.200 C 123.200 367.420,123.560 367.600,124.000 367.600 C 124.440 367.600,124.800 367.780,124.800 368.000 C 124.800 368.220,125.160 368.400,125.600 368.400 C 126.040 368.400,126.400 368.580,126.400 368.800 C 126.400 369.020,126.850 369.200,127.400 369.200 C 127.950 369.200,128.400 369.380,128.400 369.600 C 128.400 369.820,128.672 370.000,129.005 370.000 C 129.338 370.000,129.923 370.159,130.305 370.353 C 130.687 370.548,131.540 370.929,132.200 371.200 C 132.860 371.471,133.713 371.852,134.095 372.047 C 134.477 372.241,135.152 372.400,135.595 372.400 C 136.038 372.400,136.400 372.580,136.400 372.800 C 136.400 373.020,136.940 373.200,137.600 373.200 C 138.260 373.200,138.800 373.342,138.800 373.516 C 138.800 373.875,143.494 375.200,144.766 375.200 C 145.225 375.200,145.600 375.380,145.600 375.600 C 145.600 375.820,146.140 376.000,146.800 376.000 C 147.460 376.000,148.000 376.180,148.000 376.400 C 148.000 376.620,148.720 376.800,149.600 376.800 C 150.480 376.800,151.200 376.980,151.200 377.200 C 151.200 377.420,151.740 377.600,152.400 377.600 C 153.060 377.600,153.600 377.780,153.600 378.000 C 153.600 378.220,154.320 378.400,155.200 378.400 C 156.080 378.400,156.800 378.580,156.800 378.800 C 156.800 379.020,157.610 379.200,158.600 379.200 C 159.590 379.200,160.400 379.380,160.400 379.600 C 160.400 379.820,161.300 380.000,162.400 380.000 C 163.500 380.000,164.400 380.180,164.400 380.400 C 164.400 380.620,165.300 380.800,166.400 380.800 C 167.500 380.800,168.400 380.980,168.400 381.200 C 168.400 381.422,169.467 381.600,170.800 381.600 C 172.133 381.600,173.200 381.778,173.200 382.000 C 173.200 382.231,174.459 382.400,176.176 382.400 C 177.813 382.400,179.264 382.580,179.400 382.800 C 179.540 383.027,181.530 383.200,184.000 383.200 C 186.470 383.200,188.460 383.373,188.600 383.600 C 188.937 384.145,211.063 384.145,211.400 383.600 C 211.540 383.373,213.530 383.200,216.000 383.200 C 218.470 383.200,220.460 383.027,220.600 382.800 C 220.736 382.580,222.187 382.400,223.824 382.400 C 225.541 382.400,226.800 382.231,226.800 382.000 C 226.800 381.778,227.867 381.600,229.200 381.600 C 230.533 381.600,231.600 381.422,231.600 381.200 C 231.600 380.980,232.500 380.800,233.600 380.800 C 234.700 380.800,235.600 380.620,235.600 380.400 C 235.600 380.180,236.500 380.000,237.600 380.000 C 238.700 380.000,239.600 379.820,239.600 379.600 C 239.600 379.380,240.410 379.200,241.400 379.200 C 242.390 379.200,243.200 379.020,243.200 378.800 C 243.200 378.580,243.920 378.400,244.800 378.400 C 245.680 378.400,246.400 378.220,246.400 378.000 C 246.400 377.780,246.940 377.600,247.600 377.600 C 248.260 377.600,248.800 377.420,248.800 377.200 C 248.800 376.980,249.520 376.800,250.400 376.800 C 251.280 376.800,252.000 376.620,252.000 376.400 C 252.000 376.180,252.540 376.000,253.200 376.000 C 253.860 376.000,254.400 375.820,254.400 375.600 C 254.400 375.380,254.775 375.200,255.234 375.200 C 256.506 375.200,261.200 373.875,261.200 373.516 C 261.200 373.342,261.740 373.200,262.400 373.200 C 263.060 373.200,263.600 373.020,263.600 372.800 C 263.600 372.580,263.962 372.400,264.405 372.400 C 264.848 372.400,265.523 372.241,265.905 372.047 C 266.287 371.852,267.140 371.471,267.800 371.200 C 268.460 370.929,269.313 370.548,269.695 370.353 C 270.077 370.159,270.662 370.000,270.995 370.000 C 271.328 370.000,271.600 369.820,271.600 369.600 C 271.600 369.380,272.050 369.200,272.600 369.200 C 273.150 369.200,273.600 369.020,273.600 368.800 C 273.600 368.580,273.960 368.400,274.400 368.400 C 274.840 368.400,275.200 368.220,275.200 368.000 C 275.200 367.780,275.560 367.600,276.000 367.600 C 276.440 367.600,276.800 367.420,276.800 367.200 C 276.800 366.980,277.160 366.800,277.600 366.800 C 278.040 366.800,278.400 366.620,278.400 366.400 C 278.400 366.180,278.760 366.000,279.200 366.000 C 279.640 366.000,280.000 365.820,280.000 365.600 C 280.000 365.380,280.360 365.200,280.800 365.200 C 281.240 365.200,281.600 365.020,281.600 364.800 C 281.600 364.580,281.960 364.400,282.400 364.400 C 282.840 364.400,283.200 364.220,283.200 364.000 C 283.200 363.780,283.560 363.600,284.000 363.600 C 284.440 363.600,284.800 363.420,284.800 363.200 C 284.800 362.980,285.160 362.800,285.600 362.800 C 286.040 362.800,286.400 362.620,286.400 362.400 C 286.400 362.180,286.760 362.000,287.200 362.000 C 287.640 362.000,288.000 361.820,288.000 361.600 C 288.000 361.380,288.360 361.200,288.800 361.200 C 289.240 361.200,289.600 361.020,289.600 360.800 C 289.600 360.580,289.870 360.400,290.200 360.400 C 290.530 360.400,290.800 360.220,290.800 360.000 C 290.800 359.780,291.120 359.600,291.512 359.600 C 291.903 359.600,292.483 359.240,292.800 358.800 C 293.117 358.360,293.601 358.000,293.875 358.000 C 294.619 358.000,297.200 356.701,297.200 356.326 C 297.200 356.147,297.436 356.000,297.725 356.000 C 298.013 356.000,298.598 355.685,299.025 355.300 C 299.451 354.915,300.295 354.345,300.900 354.032 C 301.505 353.720,302.000 353.315,302.000 353.132 C 302.000 352.950,302.236 352.800,302.525 352.800 C 302.813 352.800,303.398 352.485,303.825 352.100 C 304.251 351.715,305.095 351.145,305.700 350.832 C 306.305 350.520,306.800 350.115,306.800 349.932 C 306.800 349.750,306.998 349.600,307.240 349.600 C 307.481 349.600,308.183 349.060,308.800 348.400 C 309.417 347.740,310.137 347.200,310.400 347.200 C 310.663 347.200,311.383 346.660,312.000 346.000 C 312.617 345.340,313.323 344.800,313.571 344.800 C 313.819 344.800,314.831 343.990,315.821 343.000 C 316.811 342.010,317.769 341.200,317.949 341.200 C 319.442 341.200,341.200 319.442,341.200 317.949 C 341.200 317.769,342.010 316.811,343.000 315.821 C 343.990 314.831,344.800 313.819,344.800 313.571 C 344.800 313.323,345.340 312.617,346.000 312.000 C 346.660 311.383,347.200 310.663,347.200 310.400 C 347.200 310.137,347.740 309.417,348.400 308.800 C 349.060 308.183,349.600 307.481,349.600 307.240 C 349.600 306.998,349.750 306.800,349.932 306.800 C 350.115 306.800,350.520 306.305,350.832 305.700 C 351.145 305.095,351.715 304.251,352.100 303.825 C 352.485 303.398,352.800 302.813,352.800 302.525 C 352.800 302.236,352.950 302.000,353.132 302.000 C 353.315 302.000,353.720 301.505,354.032 300.900 C 354.345 300.295,354.915 299.451,355.300 299.025 C 355.685 298.598,356.000 298.013,356.000 297.725 C 356.000 297.436,356.148 297.200,356.330 297.200 C 356.511 297.200,357.158 296.120,357.768 294.800 C 358.377 293.480,359.039 292.400,359.238 292.400 C 359.437 292.400,359.600 292.040,359.600 291.600 C 359.600 291.160,359.780 290.800,360.000 290.800 C 360.220 290.800,360.400 290.530,360.400 290.200 C 360.400 289.870,360.580 289.600,360.800 289.600 C 361.020 289.600,361.200 289.240,361.200 288.800 C 361.200 288.360,361.380 288.000,361.600 288.000 C 361.820 288.000,362.000 287.640,362.000 287.200 C 362.000 286.760,362.135 286.399,362.300 286.397 C 362.465 286.395,362.801 285.990,363.046 285.497 C 363.912 283.754,366.096 279.391,366.446 278.705 C 366.641 278.323,366.800 277.738,366.800 277.405 C 366.800 277.072,366.980 276.800,367.200 276.800 C 367.420 276.800,367.600 276.440,367.600 276.000 C 367.600 275.560,367.780 275.200,368.000 275.200 C 368.220 275.200,368.400 274.840,368.400 274.400 C 368.400 273.960,368.580 273.600,368.800 273.600 C 369.020 273.600,369.200 273.328,369.200 272.995 C 369.200 272.662,369.365 272.077,369.567 271.695 C 370.452 270.021,371.600 267.160,371.600 266.628 C 371.600 266.309,371.780 265.936,372.000 265.800 C 372.220 265.664,372.400 265.128,372.400 264.610 C 372.400 264.091,372.543 263.607,372.718 263.533 C 373.133 263.360,375.200 256.816,375.200 255.676 C 375.200 255.194,375.380 254.800,375.600 254.800 C 375.820 254.800,376.000 254.170,376.000 253.400 C 376.000 252.630,376.180 252.000,376.400 252.000 C 376.620 252.000,376.800 251.471,376.800 250.824 C 376.800 250.177,376.980 249.536,377.200 249.400 C 377.420 249.264,377.600 248.533,377.600 247.776 C 377.600 247.019,377.780 246.400,378.000 246.400 C 378.220 246.400,378.400 245.680,378.400 244.800 C 378.400 243.920,378.580 243.200,378.800 243.200 C 379.020 243.200,379.200 242.390,379.200 241.400 C 379.200 240.410,379.380 239.600,379.600 239.600 C 379.820 239.600,380.000 238.790,380.000 237.800 C 380.000 236.810,380.180 236.000,380.400 236.000 C 380.620 236.000,380.800 235.010,380.800 233.800 C 380.800 232.590,380.980 231.600,381.200 231.600 C 381.422 231.600,381.600 230.533,381.600 229.200 C 381.600 227.867,381.778 226.800,382.000 226.800 C 382.230 226.800,382.400 225.560,382.400 223.880 C 382.400 222.274,382.569 220.789,382.775 220.580 C 383.970 219.368,383.970 180.632,382.775 179.420 C 382.569 179.211,382.400 177.726,382.400 176.120 C 382.400 174.440,382.230 173.200,382.000 173.200 C 381.778 173.200,381.600 172.133,381.600 170.800 C 381.600 169.467,381.422 168.400,381.200 168.400 C 380.980 168.400,380.800 167.410,380.800 166.200 C 380.800 164.990,380.620 164.000,380.400 164.000 C 380.180 164.000,380.000 163.190,380.000 162.200 C 380.000 161.210,379.820 160.400,379.600 160.400 C 379.380 160.400,379.200 159.590,379.200 158.600 C 379.200 157.610,379.020 156.800,378.800 156.800 C 378.580 156.800,378.400 156.080,378.400 155.200 C 378.400 154.320,378.220 153.600,378.000 153.600 C 377.780 153.600,377.600 152.981,377.600 152.224 C 377.600 151.467,377.420 150.736,377.200 150.600 C 376.980 150.464,376.800 149.823,376.800 149.176 C 376.800 148.529,376.620 148.000,376.400 148.000 C 376.180 148.000,376.000 147.370,376.000 146.600 C 376.000 145.830,375.820 145.200,375.600 145.200 C 375.380 145.200,375.200 144.806,375.200 144.324 C 375.200 143.184,373.133 136.640,372.718 136.467 C 372.543 136.393,372.400 135.909,372.400 135.390 C 372.400 134.872,372.220 134.336,372.000 134.200 C 371.780 134.064,371.600 133.691,371.600 133.372 C 371.600 132.840,370.452 129.979,369.567 128.305 C 369.365 127.923,369.200 127.338,369.200 127.005 C 369.200 126.672,369.020 126.400,368.800 126.400 C 368.580 126.400,368.400 126.040,368.400 125.600 C 368.400 125.160,368.220 124.800,368.000 124.800 C 367.780 124.800,367.600 124.440,367.600 124.000 C 367.600 123.560,367.420 123.200,367.200 123.200 C 366.980 123.200,366.800 122.928,366.800 122.595 C 366.800 122.262,366.641 121.677,366.446 121.295 C 366.096 120.609,363.912 116.246,363.046 114.503 C 362.801 114.010,362.465 113.605,362.300 113.603 C 362.135 113.601,362.000 113.240,362.000 112.800 C 362.000 112.360,361.820 112.000,361.600 112.000 C 361.380 112.000,361.200 111.640,361.200 111.200 C 361.200 110.760,361.020 110.400,360.800 110.400 C 360.580 110.400,360.400 110.130,360.400 109.800 C 360.400 109.470,360.220 109.200,360.000 109.200 C 359.780 109.200,359.600 108.840,359.600 108.400 C 359.600 107.960,359.437 107.600,359.238 107.600 C 359.039 107.600,358.377 106.520,357.768 105.200 C 357.158 103.880,356.511 102.800,356.330 102.800 C 356.148 102.800,356.000 102.564,356.000 102.275 C 356.000 101.987,355.685 101.402,355.300 100.975 C 354.915 100.549,354.345 99.705,354.032 99.100 C 353.720 98.495,353.315 98.000,353.132 98.000 C 352.950 98.000,352.800 97.764,352.800 97.475 C 352.800 97.187,352.485 96.602,352.100 96.175 C 351.715 95.749,351.145 94.905,350.832 94.300 C 350.520 93.695,350.115 93.200,349.932 93.200 C 349.750 93.200,349.600 93.002,349.600 92.760 C 349.600 92.519,349.060 91.817,348.400 91.200 C 347.740 90.583,347.200 89.863,347.200 89.600 C 347.200 89.337,346.660 88.617,346.000 88.000 C 345.340 87.383,344.800 86.677,344.800 86.429 C 344.800 86.181,343.990 85.169,343.000 84.179 C 342.010 83.189,341.200 82.231,341.200 82.051 C 341.200 80.558,319.442 58.800,317.949 58.800 C 317.769 58.800,316.811 57.990,315.821 57.000 C 314.831 56.010,313.819 55.200,313.571 55.200 C 313.323 55.200,312.617 54.660,312.000 54.000 C 311.383 53.340,310.663 52.800,310.400 52.800 C 310.137 52.800,309.417 52.260,308.800 51.600 C 308.183 50.940,307.481 50.400,307.240 50.400 C 306.998 50.400,306.800 50.250,306.800 50.068 C 306.800 49.885,306.305 49.480,305.700 49.168 C 305.095 48.855,304.251 48.285,303.825 47.900 C 303.398 47.515,302.813 47.200,302.525 47.200 C 302.236 47.200,302.000 47.050,302.000 46.868 C 302.000 46.685,301.505 46.280,300.900 45.968 C 300.295 45.655,299.451 45.085,299.025 44.700 C 298.598 44.315,298.013 44.000,297.725 44.000 C 297.436 44.000,297.200 43.853,297.200 43.674 C 297.200 43.299,294.619 42.000,293.875 42.000 C 293.601 42.000,293.117 41.640,292.800 41.200 C 292.483 40.760,291.903 40.400,291.512 40.400 C 291.120 40.400,290.800 40.220,290.800 40.000 C 290.800 39.780,290.530 39.600,290.200 39.600 C 289.870 39.600,289.600 39.420,289.600 39.200 C 289.600 38.980,289.240 38.800,288.800 38.800 C 288.360 38.800,288.000 38.620,288.000 38.400 C 288.000 38.180,287.640 38.000,287.200 38.000 C 286.760 38.000,286.400 37.820,286.400 37.600 C 286.400 37.380,286.040 37.200,285.600 37.200 C 285.160 37.200,284.800 37.020,284.800 36.800 C 284.800 36.580,284.440 36.400,284.000 36.400 C 283.560 36.400,283.200 36.220,283.200 36.000 C 283.200 35.780,282.840 35.600,282.400 35.600 C 281.960 35.600,281.600 35.420,281.600 35.200 C 281.600 34.980,281.240 34.800,280.800 34.800 C 280.360 34.800,280.000 34.620,280.000 34.400 C 280.000 34.180,279.640 34.000,279.200 34.000 C 278.760 34.000,278.400 33.820,278.400 33.600 C 278.400 33.380,278.040 33.200,277.600 33.200 C 277.160 33.200,276.800 33.020,276.800 32.800 C 276.800 32.580,276.440 32.400,276.000 32.400 C 275.560 32.400,275.200 32.220,275.200 32.000 C 275.200 31.780,274.840 31.600,274.400 31.600 C 273.960 31.600,273.600 31.420,273.600 31.200 C 273.600 30.980,273.150 30.800,272.600 30.800 C 272.050 30.800,271.600 30.620,271.600 30.400 C 271.600 30.180,271.328 30.000,270.995 30.000 C 270.662 30.000,270.077 29.841,269.695 29.647 C 269.313 29.452,268.460 29.071,267.800 28.800 C 267.140 28.529,266.287 28.148,265.905 27.953 C 265.523 27.759,264.848 27.600,264.405 27.600 C 263.962 27.600,263.600 27.420,263.600 27.200 C 263.600 26.980,263.060 26.800,262.400 26.800 C 261.740 26.800,261.200 26.658,261.200 26.484 C 261.200 26.125,256.506 24.800,255.234 24.800 C 254.775 24.800,254.400 24.620,254.400 24.400 C 254.400 24.180,253.860 24.000,253.200 24.000 C 252.540 24.000,252.000 23.820,252.000 23.600 C 252.000 23.380,251.280 23.200,250.400 23.200 C 249.520 23.200,248.800 23.020,248.800 22.800 C 248.800 22.580,248.260 22.400,247.600 22.400 C 246.940 22.400,246.400 22.220,246.400 22.000 C 246.400 21.780,245.680 21.600,244.800 21.600 C 243.920 21.600,243.200 21.420,243.200 21.200 C 243.200 20.980,242.390 20.800,241.400 20.800 C 240.410 20.800,239.600 20.620,239.600 20.400 C 239.600 20.180,238.700 20.000,237.600 20.000 C 236.500 20.000,235.600 19.820,235.600 19.600 C 235.600 19.380,234.700 19.200,233.600 19.200 C 232.500 19.200,231.600 19.020,231.600 18.800 C 231.600 18.578,230.533 18.400,229.200 18.400 C 227.867 18.400,226.800 18.222,226.800 18.000 C 226.800 17.769,225.541 17.600,223.824 17.600 C 222.187 17.600,220.736 17.420,220.600 17.200 C 220.460 16.973,218.470 16.800,216.000 16.800 C 213.530 16.800,211.540 16.627,211.400 16.400 C 211.063 15.855,188.937 15.855,188.600 16.400 M216.400 36.425 C 226.110 37.416,234.253 38.720,240.109 40.221 C 282.436 51.070,321.149 80.416,342.504 117.840 C 345.402 122.920,351.559 135.503,351.686 136.607 L 351.800 137.603 200.000 137.603 L 48.200 137.603 48.322 136.558 C 48.525 134.820,56.925 118.600,60.888 112.293 C 78.222 84.709,105.314 61.580,135.200 48.852 C 158.658 38.861,177.314 35.364,204.400 35.880 C 208.910 35.966,214.310 36.211,216.400 36.425 M42.718 158.120 C 42.832 160.692,42.803 160.784,41.789 161.039 C 40.247 161.426,39.861 160.803,40.400 158.801 C 41.622 154.264,42.535 153.995,42.718 158.120 M53.122 155.543 C 53.480 155.770,53.605 156.618,53.522 158.237 L 53.400 160.600 50.600 160.600 L 47.800 160.600 47.678 158.237 C 47.535 155.458,47.773 155.212,50.600 155.212 C 51.700 155.212,52.835 155.361,53.122 155.543 M64.322 155.543 C 64.680 155.770,64.805 156.618,64.722 158.237 L 64.600 160.600 62.036 160.721 C 60.256 160.805,59.372 160.682,59.143 160.321 C 58.639 159.527,58.737 156.223,59.280 155.680 C 59.822 155.138,63.524 155.037,64.322 155.543 M75.347 155.712 C 75.898 156.115,76.021 156.693,75.924 158.412 L 75.800 160.600 73.000 160.600 L 70.200 160.600 70.078 158.237 C 69.995 156.618,70.120 155.770,70.478 155.543 C 71.290 155.028,74.568 155.142,75.347 155.712 M86.167 155.443 C 86.653 155.629,86.800 156.280,86.800 158.243 L 86.800 160.800 84.000 160.800 L 81.200 160.800 81.200 158.233 C 81.200 156.554,81.373 155.597,81.700 155.465 C 82.423 155.173,85.426 155.158,86.167 155.443 M97.522 155.543 C 97.880 155.770,98.005 156.618,97.922 158.237 L 97.800 160.600 95.236 160.721 C 92.259 160.861,92.015 160.649,92.006 157.920 C 91.998 155.490,95.237 154.094,97.522 155.543 M108.720 155.680 C 109.263 156.223,109.361 159.527,108.857 160.321 C 108.628 160.682,107.744 160.805,105.964 160.721 L 103.400 160.600 103.278 158.237 C 103.195 156.618,103.320 155.770,103.678 155.543 C 104.476 155.037,108.178 155.138,108.720 155.680 M119.774 155.831 C 120.337 156.394,120.413 157.725,120.040 160.500 C 120.018 160.665,118.740 160.800,117.200 160.800 L 114.400 160.800 114.400 158.233 C 114.400 156.554,114.573 155.597,114.900 155.465 C 116.076 154.990,119.165 155.222,119.774 155.831 M130.567 155.443 C 131.053 155.629,131.200 156.280,131.200 158.243 L 131.200 160.800 128.418 160.800 L 125.636 160.800 125.418 159.500 C 125.175 158.055,125.326 156.367,125.762 155.662 C 126.060 155.179,129.474 155.023,130.567 155.443 M141.922 155.543 C 142.280 155.770,142.405 156.618,142.322 158.237 L 142.200 160.600 139.400 160.600 L 136.600 160.600 136.482 158.133 C 136.381 156.036,136.471 155.638,137.082 155.479 C 138.322 155.157,141.377 155.198,141.922 155.543 M153.114 155.900 C 153.302 156.285,153.381 157.545,153.290 158.700 L 153.123 160.800 150.361 160.800 L 147.600 160.800 147.600 158.233 C 147.600 155.327,147.651 155.278,150.686 155.232 C 152.296 155.207,152.850 155.360,153.114 155.900 M163.767 155.443 C 164.253 155.629,164.400 156.280,164.400 158.243 L 164.400 160.800 161.600 160.800 C 160.060 160.800,158.783 160.665,158.763 160.500 C 158.177 155.800,159.972 153.986,163.767 155.443 M174.967 155.443 C 175.454 155.629,175.600 156.282,175.600 158.260 L 175.600 160.835 172.700 160.718 L 169.800 160.600 169.682 158.133 C 169.581 156.036,169.671 155.638,170.282 155.479 C 171.384 155.193,174.259 155.171,174.967 155.443 M185.918 155.457 C 186.766 155.684,186.827 155.889,186.718 158.151 L 186.600 160.600 183.800 160.600 L 181.000 160.600 180.878 158.237 C 180.725 155.263,182.186 154.457,185.918 155.457 M197.057 155.506 C 197.448 155.757,197.815 158.717,197.652 160.300 C 197.616 160.647,196.746 160.800,194.800 160.800 L 192.000 160.800 192.000 158.233 C 192.000 156.554,192.173 155.597,192.500 155.465 C 193.281 155.150,196.549 155.179,197.057 155.506 M208.322 155.543 C 208.680 155.770,208.805 156.618,208.722 158.237 L 208.600 160.600 206.036 160.721 C 203.059 160.861,202.815 160.649,202.806 157.920 C 202.798 155.490,206.037 154.094,208.322 155.543 M219.522 155.543 C 219.880 155.770,220.005 156.618,219.922 158.237 L 219.800 160.600 217.000 160.600 L 214.200 160.600 214.078 158.237 C 213.935 155.458,214.173 155.212,217.000 155.212 C 218.100 155.212,219.235 155.361,219.522 155.543 M230.426 155.614 C 231.011 155.927,231.200 156.457,231.200 157.781 C 231.200 160.673,231.064 160.800,227.957 160.800 L 225.200 160.800 225.200 158.233 C 225.200 156.554,225.373 155.597,225.700 155.465 C 226.610 155.098,229.640 155.193,230.426 155.614 M241.367 155.443 C 241.853 155.629,242.000 156.280,242.000 158.243 L 242.000 160.800 239.243 160.800 C 236.147 160.800,236.000 160.666,236.000 157.847 C 236.000 155.422,238.451 154.324,241.367 155.443 M252.722 155.543 C 253.080 155.770,253.205 156.618,253.122 158.237 L 253.000 160.600 250.436 160.721 C 247.529 160.858,247.216 160.620,247.206 158.274 C 247.195 155.490,250.252 153.977,252.722 155.543 M263.747 155.712 C 264.298 156.115,264.421 156.693,264.324 158.412 L 264.200 160.600 261.400 160.600 L 258.600 160.600 258.478 158.237 C 258.395 156.618,258.520 155.770,258.878 155.543 C 259.690 155.028,262.968 155.142,263.747 155.712 M274.567 155.443 C 275.053 155.629,275.200 156.280,275.200 158.243 L 275.200 160.800 272.400 160.800 L 269.600 160.800 269.600 158.233 C 269.600 156.554,269.773 155.597,270.100 155.465 C 270.823 155.173,273.826 155.158,274.567 155.443 M285.922 155.543 C 286.280 155.770,286.405 156.618,286.322 158.237 L 286.200 160.600 283.636 160.721 C 280.659 160.861,280.415 160.649,280.406 157.920 C 280.398 155.490,283.637 154.094,285.922 155.543 M297.122 155.543 C 297.480 155.770,297.605 156.618,297.522 158.237 L 297.400 160.600 294.600 160.600 L 291.800 160.600 291.678 158.237 C 291.535 155.458,291.773 155.212,294.600 155.212 C 295.700 155.212,296.835 155.361,297.122 155.543 M307.950 155.561 C 308.571 155.954,308.958 158.515,308.608 159.912 C 308.390 160.778,308.208 160.829,305.688 160.718 L 303.000 160.600 302.878 158.237 C 302.795 156.618,302.920 155.770,303.278 155.543 C 303.968 155.106,307.252 155.118,307.950 155.561 M318.967 155.443 C 319.453 155.629,319.600 156.280,319.600 158.243 L 319.600 160.800 316.800 160.800 L 314.000 160.800 314.000 158.233 C 314.000 156.554,314.173 155.597,314.500 155.465 C 315.223 155.173,318.226 155.158,318.967 155.443 M330.373 155.768 C 330.644 156.094,330.792 157.239,330.722 158.468 L 330.600 160.600 327.800 160.600 L 325.000 160.600 324.882 158.133 C 324.749 155.354,324.777 155.328,328.051 155.246 C 329.210 155.217,330.078 155.412,330.373 155.768 M341.586 155.974 C 342.042 156.826,342.138 159.175,341.757 160.167 C 341.568 160.660,340.902 160.800,338.757 160.800 L 336.000 160.800 336.000 158.233 C 336.000 155.327,336.051 155.278,339.086 155.232 C 340.759 155.206,341.254 155.353,341.586 155.974 M352.720 155.680 C 353.222 156.182,353.375 159.078,352.957 160.167 C 352.644 160.983,347.219 161.108,347.170 160.300 C 347.006 157.610,347.186 155.855,347.656 155.557 C 348.471 155.040,352.170 155.130,352.720 155.680 M359.590 158.763 C 360.088 160.613,359.777 161.396,358.708 160.986 C 357.997 160.713,357.404 157.649,357.813 156.360 C 358.167 155.244,358.915 156.255,359.590 158.763 M364.176 200.558 C 364.412 200.916,364.412 201.446,364.176 201.970 L 363.800 202.808 200.000 202.815 L 36.200 202.821 35.831 201.834 C 35.589 201.185,35.611 200.668,35.897 200.324 C 36.579 199.502,363.636 199.735,364.176 200.558 M352.400 261.539 C 352.400 263.889,366.646 263.688,200.000 263.687 C 33.399 263.687,47.600 263.886,47.600 261.544 C 47.600 260.874,54.871 260.841,200.000 260.836 C 345.569 260.830,352.400 260.862,352.400 261.539 M306.385 325.000 C 306.377 325.220,305.718 325.895,304.921 326.500 L 303.471 327.600 200.000 327.600 L 96.529 327.600 95.079 326.500 C 94.282 325.895,93.623 325.220,93.615 325.000 C 93.605 324.734,129.324 324.600,200.000 324.600 C 270.676 324.600,306.395 324.734,306.385 325.000 " stroke="none" fill="#f5f5f5" fill-rule="evenodd"></path><path id="path2" d="M48.563 136.490 C 48.647 136.902,77.671 137.000,200.000 137.000 C 322.329 137.000,351.353 136.902,351.437 136.490 C 351.494 136.210,351.449 136.165,351.337 136.390 C 351.198 136.669,302.814 136.800,200.000 136.800 C 97.186 136.800,48.802 136.669,48.663 136.390 C 48.552 136.165,48.507 136.210,48.563 136.490 M41.146 157.704 C 40.497 159.874,40.570 160.943,41.349 160.684 C 41.898 160.501,42.470 156.854,42.064 156.129 C 41.883 155.804,41.537 156.398,41.146 157.704 M48.667 155.867 C 48.520 156.013,48.400 157.102,48.400 158.287 L 48.400 160.440 50.700 160.320 C 53.180 160.191,53.718 159.317,53.022 156.545 C 52.786 155.607,49.447 155.087,48.667 155.867 M59.600 157.979 L 59.600 160.400 61.820 160.400 L 64.040 160.400 63.920 158.100 L 63.800 155.800 61.700 155.679 L 59.600 155.558 59.600 157.979 M70.570 156.133 C 70.449 156.450,70.406 157.494,70.475 158.454 L 70.600 160.200 72.800 160.200 L 75.000 160.200 75.000 158.000 L 75.000 155.800 72.896 155.679 C 71.350 155.590,70.732 155.711,70.570 156.133 M81.770 156.133 C 81.649 156.450,81.606 157.494,81.675 158.454 L 81.800 160.200 84.000 160.200 L 86.200 160.200 86.200 158.000 L 86.200 155.800 84.096 155.679 C 82.550 155.590,81.932 155.711,81.770 156.133 M92.970 156.133 C 92.849 156.450,92.806 157.494,92.875 158.454 L 93.000 160.200 95.200 160.200 L 97.400 160.200 97.400 158.000 L 97.400 155.800 95.296 155.679 C 93.750 155.590,93.132 155.711,92.970 156.133 M104.000 158.000 L 104.000 160.400 106.200 160.400 L 108.400 160.400 108.400 158.000 L 108.400 155.600 106.200 155.600 L 104.000 155.600 104.000 158.000 M114.970 156.133 C 114.849 156.450,114.806 157.494,114.875 158.454 L 115.000 160.200 117.200 160.200 L 119.400 160.200 119.400 158.000 L 119.400 155.800 117.296 155.679 C 115.750 155.590,115.132 155.711,114.970 156.133 M126.285 155.849 C 126.128 156.005,126.000 157.102,126.000 158.287 L 126.000 160.440 128.300 160.320 L 130.600 160.200 130.600 158.000 L 130.600 155.800 128.585 155.682 C 127.476 155.617,126.441 155.692,126.285 155.849 M137.390 156.016 C 135.845 158.516,137.206 160.576,140.238 160.328 L 141.800 160.200 141.800 158.000 L 141.800 155.800 139.736 155.680 C 138.498 155.609,137.559 155.743,137.390 156.016 M148.425 156.170 C 148.164 156.484,148.007 157.519,148.076 158.470 L 148.200 160.200 150.500 160.320 L 152.800 160.440 152.800 158.020 L 152.800 155.600 150.849 155.600 C 149.648 155.600,148.716 155.819,148.425 156.170 M159.370 156.133 C 159.249 156.450,159.206 157.494,159.275 158.454 L 159.400 160.200 161.721 160.321 L 164.041 160.441 163.921 158.121 L 163.800 155.800 161.696 155.679 C 160.150 155.590,159.532 155.711,159.370 156.133 M170.562 156.154 C 170.445 156.459,170.406 157.494,170.475 158.454 L 170.600 160.200 172.800 160.200 L 175.000 160.200 175.129 158.845 C 175.390 156.118,175.015 155.600,172.780 155.600 C 171.440 155.600,170.704 155.784,170.562 156.154 M181.766 156.054 C 181.612 156.304,181.486 157.339,181.486 158.354 L 181.486 160.200 183.835 160.200 L 186.185 160.200 186.147 158.349 C 186.126 157.332,185.983 156.297,185.831 156.049 C 185.468 155.462,182.130 155.466,181.766 156.054 M192.876 155.934 C 192.529 156.161,192.393 156.944,192.476 158.239 L 192.600 160.200 194.800 160.200 L 197.000 160.200 197.000 158.000 L 197.000 155.800 195.200 155.696 C 194.210 155.638,193.164 155.746,192.876 155.934 M203.762 156.154 C 203.645 156.459,203.606 157.494,203.675 158.454 L 203.800 160.200 206.000 160.200 L 208.200 160.200 208.324 158.239 C 208.407 156.940,208.272 156.165,207.924 155.945 C 207.042 155.385,203.998 155.539,203.762 156.154 M214.841 156.151 C 214.569 156.479,214.406 157.510,214.476 158.470 L 214.600 160.200 216.921 160.321 L 219.241 160.441 219.121 158.121 L 219.000 155.800 217.165 155.681 C 215.917 155.600,215.173 155.750,214.841 156.151 M225.770 156.133 C 225.649 156.450,225.606 157.494,225.675 158.454 L 225.800 160.200 228.000 160.200 L 230.200 160.200 230.200 158.000 L 230.200 155.800 228.096 155.679 C 226.550 155.590,225.932 155.711,225.770 156.133 M237.067 155.867 C 236.920 156.013,236.800 157.102,236.800 158.287 L 236.800 160.440 239.100 160.320 C 241.580 160.191,242.118 159.317,241.422 156.545 C 241.186 155.607,237.847 155.087,237.067 155.867 M248.000 157.600 C 248.000 158.700,248.000 159.735,248.000 159.900 C 248.000 160.065,249.035 160.200,250.300 160.200 L 252.600 160.200 252.724 158.470 C 252.890 156.169,252.340 155.600,249.951 155.600 L 248.000 155.600 248.000 157.600 M259.085 155.849 C 258.928 156.005,258.800 157.102,258.800 158.287 L 258.800 160.440 261.100 160.320 L 263.400 160.200 263.400 158.000 L 263.400 155.800 261.385 155.682 C 260.276 155.617,259.241 155.692,259.085 155.849 M270.170 156.133 C 270.049 156.450,270.006 157.494,270.075 158.454 L 270.200 160.200 272.400 160.200 L 274.600 160.200 274.600 158.000 L 274.600 155.800 272.496 155.679 C 270.950 155.590,270.332 155.711,270.170 156.133 M281.362 156.154 C 281.245 156.459,281.206 157.494,281.275 158.454 L 281.400 160.200 283.600 160.200 L 285.800 160.200 285.929 158.845 C 286.190 156.118,285.815 155.600,283.580 155.600 C 282.240 155.600,281.504 155.784,281.362 156.154 M292.400 157.979 L 292.400 160.400 294.620 160.400 L 296.840 160.400 296.720 158.100 L 296.600 155.800 294.500 155.679 L 292.400 155.558 292.400 157.979 M303.370 156.133 C 303.249 156.450,303.206 157.494,303.275 158.454 L 303.400 160.200 305.600 160.200 L 307.800 160.200 307.800 158.000 L 307.800 155.800 305.696 155.679 C 304.150 155.590,303.532 155.711,303.370 156.133 M314.570 156.133 C 314.449 156.450,314.406 157.494,314.475 158.454 L 314.600 160.200 316.800 160.200 L 319.000 160.200 319.000 158.000 L 319.000 155.800 316.896 155.679 C 315.350 155.590,314.732 155.711,314.570 156.133 M325.778 156.036 C 325.058 157.200,325.356 160.024,326.222 160.241 C 329.506 161.066,331.008 159.678,330.222 156.545 C 329.963 155.512,326.357 155.099,325.778 156.036 M336.757 156.000 C 336.734 156.220,336.694 157.255,336.670 158.300 L 336.625 160.200 338.913 160.320 L 341.200 160.440 341.200 158.020 L 341.200 155.600 339.000 155.600 C 337.790 155.600,336.781 155.780,336.757 156.000 M347.770 156.133 C 347.649 156.450,347.606 157.494,347.675 158.454 L 347.800 160.200 350.121 160.321 L 352.441 160.441 352.321 158.121 L 352.200 155.800 350.096 155.679 C 348.550 155.590,347.932 155.711,347.770 156.133 M358.631 158.740 C 358.455 159.273,358.492 159.852,358.715 160.075 C 359.271 160.631,359.522 159.982,359.208 158.800 L 358.941 157.800 358.631 158.740 M36.400 201.165 C 36.400 202.090,39.284 202.435,39.816 201.573 C 40.173 200.997,40.061 200.934,38.100 200.611 C 36.553 200.355,36.400 200.405,36.400 201.165 M361.076 200.689 C 359.415 200.939,359.998 201.781,361.931 201.923 C 363.389 202.030,363.600 201.942,363.600 201.223 C 363.600 200.383,363.398 200.340,361.076 200.689 M48.618 261.915 C 48.018 262.515,49.075 263.195,50.543 263.153 C 54.260 263.047,54.786 262.592,51.691 262.159 C 50.091 261.935,48.708 261.825,48.618 261.915 M349.800 261.891 C 346.662 262.205,345.723 262.495,346.800 262.819 C 348.602 263.362,351.096 263.248,351.340 262.613 C 351.621 261.880,351.320 261.739,349.800 261.891 M95.683 326.173 C 96.538 326.985,97.167 327.199,98.683 327.194 C 103.022 327.180,101.746 326.087,96.600 325.410 L 94.600 325.146 95.683 326.173 M303.000 325.463 C 300.278 325.787,298.500 326.499,299.600 326.824 C 301.739 327.457,303.425 327.238,304.400 326.200 C 305.013 325.547,305.142 325.221,304.770 325.260 C 304.456 325.293,303.660 325.384,303.000 325.463 " stroke="none" fill="#a6a4a0" fill-rule="evenodd"></path><path id="path3" d="M197.900 35.895 C 199.055 35.976,200.945 35.976,202.100 35.895 C 203.255 35.814,202.310 35.748,200.000 35.748 C 197.690 35.748,196.745 35.814,197.900 35.895 M48.103 137.308 C 48.159 137.477,116.513 137.616,200.000 137.616 C 283.487 137.616,351.841 137.477,351.897 137.308 C 351.954 137.139,283.600 137.000,200.000 137.000 C 116.400 137.000,48.046 137.139,48.103 137.308 M41.231 156.118 C 39.702 160.140,39.859 161.523,41.789 161.039 C 42.803 160.784,42.832 160.692,42.718 158.120 C 42.593 155.297,41.899 154.363,41.231 156.118 M48.078 155.543 C 47.720 155.770,47.595 156.618,47.678 158.237 L 47.800 160.600 50.600 160.600 L 53.400 160.600 53.522 158.237 C 53.665 155.458,53.427 155.212,50.600 155.212 C 49.500 155.212,48.365 155.361,48.078 155.543 M59.280 155.680 C 58.737 156.223,58.639 159.527,59.143 160.321 C 59.372 160.682,60.256 160.805,62.036 160.721 L 64.600 160.600 64.722 158.237 C 64.805 156.618,64.680 155.770,64.322 155.543 C 63.524 155.037,59.822 155.138,59.280 155.680 M70.478 155.543 C 70.120 155.770,69.995 156.618,70.078 158.237 L 70.200 160.600 73.000 160.600 L 75.800 160.600 75.924 158.412 C 76.086 155.548,73.019 153.932,70.478 155.543 M81.700 155.465 C 81.373 155.597,81.200 156.554,81.200 158.233 L 81.200 160.800 84.000 160.800 L 86.800 160.800 86.800 158.243 C 86.800 156.280,86.653 155.629,86.167 155.443 C 85.426 155.158,82.423 155.173,81.700 155.465 M92.700 155.632 C 92.189 155.930,92.002 156.547,92.006 157.920 C 92.015 160.649,92.259 160.861,95.236 160.721 L 97.800 160.600 97.922 158.237 C 98.005 156.618,97.880 155.770,97.522 155.543 C 96.793 155.081,93.544 155.141,92.700 155.632 M103.678 155.543 C 103.320 155.770,103.195 156.618,103.278 158.237 L 103.400 160.600 105.964 160.721 C 107.744 160.805,108.628 160.682,108.857 160.321 C 109.361 159.527,109.263 156.223,108.720 155.680 C 108.178 155.138,104.476 155.037,103.678 155.543 M114.900 155.465 C 114.573 155.597,114.400 156.554,114.400 158.233 L 114.400 160.800 117.200 160.800 C 118.740 160.800,120.018 160.665,120.040 160.500 C 120.683 155.713,118.817 153.885,114.900 155.465 M125.762 155.662 C 125.326 156.367,125.175 158.055,125.418 159.500 L 125.636 160.800 128.418 160.800 L 131.200 160.800 131.200 158.243 C 131.200 156.280,131.053 155.629,130.567 155.443 C 129.474 155.023,126.060 155.179,125.762 155.662 M137.082 155.479 C 136.471 155.638,136.381 156.036,136.482 158.133 L 136.600 160.600 139.400 160.600 L 142.200 160.600 142.322 158.237 C 142.474 155.292,140.931 154.480,137.082 155.479 M148.100 155.465 C 147.773 155.597,147.600 156.554,147.600 158.233 L 147.600 160.800 150.361 160.800 L 153.123 160.800 153.290 158.700 C 153.547 155.459,151.412 154.128,148.100 155.465 M159.117 155.740 C 158.671 156.186,158.504 158.426,158.763 160.500 C 158.783 160.665,160.060 160.800,161.600 160.800 L 164.400 160.800 164.400 158.243 C 164.400 156.280,164.253 155.629,163.767 155.443 C 162.618 155.002,159.667 155.190,159.117 155.740 M170.282 155.479 C 169.671 155.638,169.581 156.036,169.682 158.133 L 169.800 160.600 172.700 160.718 L 175.600 160.835 175.600 158.260 C 175.600 156.282,175.454 155.629,174.967 155.443 C 174.259 155.171,171.384 155.193,170.282 155.479 M181.278 155.543 C 180.920 155.770,180.795 156.618,180.878 158.237 L 181.000 160.600 183.800 160.600 L 186.600 160.600 186.718 158.151 C 186.827 155.889,186.766 155.684,185.918 155.457 C 184.602 155.104,181.890 155.155,181.278 155.543 M192.500 155.465 C 192.173 155.597,192.000 156.554,192.000 158.233 L 192.000 160.800 194.800 160.800 C 196.746 160.800,197.616 160.647,197.652 160.300 C 197.815 158.717,197.448 155.757,197.057 155.506 C 196.549 155.179,193.281 155.150,192.500 155.465 M203.500 155.632 C 202.989 155.930,202.802 156.547,202.806 157.920 C 202.815 160.649,203.059 160.861,206.036 160.721 L 208.600 160.600 208.722 158.237 C 208.805 156.618,208.680 155.770,208.322 155.543 C 207.593 155.081,204.344 155.141,203.500 155.632 M214.478 155.543 C 214.120 155.770,213.995 156.618,214.078 158.237 L 214.200 160.600 217.000 160.600 L 219.800 160.600 219.922 158.237 C 220.065 155.458,219.827 155.212,217.000 155.212 C 215.900 155.212,214.765 155.361,214.478 155.543 M225.700 155.465 C 225.373 155.597,225.200 156.554,225.200 158.233 L 225.200 160.800 227.957 160.800 C 231.064 160.800,231.200 160.673,231.200 157.781 C 231.200 155.499,228.468 154.348,225.700 155.465 M236.480 155.680 C 235.978 156.182,235.825 159.078,236.243 160.167 C 236.432 160.660,237.098 160.800,239.243 160.800 L 242.000 160.800 242.000 158.243 C 242.000 156.280,241.853 155.629,241.367 155.443 C 240.267 155.021,236.980 155.180,236.480 155.680 M247.614 155.974 C 247.121 156.895,247.077 159.586,247.543 160.321 C 247.772 160.682,248.656 160.805,250.436 160.721 L 253.000 160.600 253.122 158.237 C 253.266 155.446,253.036 155.215,250.114 155.206 C 248.457 155.201,247.943 155.359,247.614 155.974 M258.878 155.543 C 258.520 155.770,258.395 156.618,258.478 158.237 L 258.600 160.600 261.400 160.600 L 264.200 160.600 264.324 158.412 C 264.486 155.548,261.419 153.932,258.878 155.543 M270.100 155.465 C 269.773 155.597,269.600 156.554,269.600 158.233 L 269.600 160.800 272.400 160.800 L 275.200 160.800 275.200 158.243 C 275.200 156.280,275.053 155.629,274.567 155.443 C 273.826 155.158,270.823 155.173,270.100 155.465 M281.100 155.632 C 280.589 155.930,280.402 156.547,280.406 157.920 C 280.415 160.649,280.659 160.861,283.636 160.721 L 286.200 160.600 286.322 158.237 C 286.405 156.618,286.280 155.770,285.922 155.543 C 285.193 155.081,281.944 155.141,281.100 155.632 M292.078 155.543 C 291.720 155.770,291.595 156.618,291.678 158.237 L 291.800 160.600 294.600 160.600 L 297.400 160.600 297.522 158.237 C 297.665 155.458,297.427 155.212,294.600 155.212 C 293.500 155.212,292.365 155.361,292.078 155.543 M303.278 155.543 C 302.920 155.770,302.795 156.618,302.878 158.237 L 303.000 160.600 305.688 160.718 C 308.728 160.851,309.011 160.542,308.670 157.449 C 308.442 155.377,305.294 154.265,303.278 155.543 M314.500 155.465 C 314.173 155.597,314.000 156.554,314.000 158.233 L 314.000 160.800 316.800 160.800 L 319.600 160.800 319.600 158.243 C 319.600 156.280,319.453 155.629,318.967 155.443 C 318.226 155.158,315.223 155.173,314.500 155.465 M325.482 155.479 C 324.871 155.638,324.781 156.036,324.882 158.133 L 325.000 160.600 327.800 160.600 L 330.600 160.600 330.722 158.468 C 330.898 155.395,329.305 154.487,325.482 155.479 M336.500 155.465 C 336.173 155.597,336.000 156.554,336.000 158.233 L 336.000 160.800 338.757 160.800 C 341.799 160.800,342.000 160.635,342.000 158.141 C 342.000 155.491,339.478 154.263,336.500 155.465 M347.656 155.557 C 347.186 155.855,347.006 157.610,347.170 160.300 C 347.219 161.108,352.644 160.983,352.957 160.167 C 353.375 159.078,353.222 156.182,352.720 155.680 C 352.170 155.130,348.471 155.040,347.656 155.557 M42.077 158.591 C 41.808 160.473,41.096 161.372,40.709 160.317 C 40.605 160.033,40.801 158.857,41.146 157.704 C 41.898 155.189,42.484 155.747,42.077 158.591 M53.022 156.545 C 53.718 159.317,53.180 160.191,50.700 160.320 L 48.400 160.440 48.400 158.287 C 48.400 155.662,48.457 155.600,50.859 155.600 C 52.549 155.600,52.814 155.715,53.022 156.545 M63.920 158.100 L 64.040 160.400 61.820 160.400 L 59.600 160.400 59.600 157.979 L 59.600 155.558 61.700 155.679 L 63.800 155.800 63.920 158.100 M75.000 158.000 L 75.000 160.200 72.800 160.200 L 70.600 160.200 70.475 158.454 C 70.282 155.770,70.482 155.540,72.896 155.679 L 75.000 155.800 75.000 158.000 M86.200 158.000 L 86.200 160.200 84.000 160.200 L 81.800 160.200 81.675 158.454 C 81.482 155.770,81.682 155.540,84.096 155.679 L 86.200 155.800 86.200 158.000 M97.400 158.000 L 97.400 160.200 95.200 160.200 L 93.000 160.200 92.875 158.454 C 92.682 155.770,92.882 155.540,95.296 155.679 L 97.400 155.800 97.400 158.000 M108.400 158.000 L 108.400 160.400 106.200 160.400 L 104.000 160.400 104.000 158.000 L 104.000 155.600 106.200 155.600 L 108.400 155.600 108.400 158.000 M119.400 158.000 L 119.400 160.200 117.200 160.200 L 115.000 160.200 114.875 158.454 C 114.682 155.770,114.882 155.540,117.296 155.679 L 119.400 155.800 119.400 158.000 M130.600 158.000 L 130.600 160.200 128.300 160.320 L 126.000 160.440 126.000 158.287 C 126.000 155.630,126.093 155.536,128.585 155.682 L 130.600 155.800 130.600 158.000 M141.800 158.000 L 141.800 160.200 140.238 160.328 C 137.414 160.559,136.957 160.262,137.037 158.249 C 137.137 155.759,137.363 155.543,139.736 155.680 L 141.800 155.800 141.800 158.000 M152.800 158.020 L 152.800 160.440 150.500 160.320 L 148.200 160.200 148.076 158.470 C 147.910 156.169,148.460 155.600,150.849 155.600 L 152.800 155.600 152.800 158.020 M163.921 158.121 L 164.041 160.441 161.721 160.321 L 159.400 160.200 159.275 158.454 C 159.082 155.770,159.282 155.540,161.696 155.679 L 163.800 155.800 163.921 158.121 M175.022 156.545 C 175.152 157.064,175.201 158.099,175.129 158.845 L 175.000 160.200 172.800 160.200 L 170.600 160.200 170.475 158.454 C 170.288 155.856,170.495 155.600,172.780 155.600 C 174.553 155.600,174.812 155.709,175.022 156.545 M185.831 156.049 C 185.983 156.297,186.126 157.332,186.147 158.349 L 186.185 160.200 183.835 160.200 L 181.486 160.200 181.486 158.354 C 181.486 157.339,181.612 156.304,181.766 156.054 C 182.130 155.466,185.468 155.462,185.831 156.049 M197.000 158.000 L 197.000 160.200 194.800 160.200 L 192.600 160.200 192.476 158.239 C 192.327 155.900,192.701 155.551,195.200 155.696 L 197.000 155.800 197.000 158.000 M207.924 155.945 C 208.272 156.165,208.407 156.940,208.324 158.239 L 208.200 160.200 206.000 160.200 L 203.800 160.200 203.675 158.454 C 203.480 155.743,205.617 154.482,207.924 155.945 M219.121 158.121 L 219.241 160.441 216.921 160.321 L 214.600 160.200 214.476 158.470 C 214.307 156.131,214.885 155.533,217.165 155.681 L 219.000 155.800 219.121 158.121 M230.200 158.000 L 230.200 160.200 228.000 160.200 L 225.800 160.200 225.675 158.454 C 225.482 155.770,225.682 155.540,228.096 155.679 L 230.200 155.800 230.200 158.000 M241.422 156.545 C 242.118 159.317,241.580 160.191,239.100 160.320 L 236.800 160.440 236.800 158.287 C 236.800 155.662,236.857 155.600,239.259 155.600 C 240.949 155.600,241.214 155.715,241.422 156.545 M252.375 156.170 C 252.636 156.484,252.793 157.519,252.724 158.470 L 252.600 160.200 250.300 160.200 C 249.035 160.200,248.000 160.065,248.000 159.900 C 248.000 159.735,248.000 158.700,248.000 157.600 L 248.000 155.600 249.951 155.600 C 251.152 155.600,252.084 155.819,252.375 156.170 M263.400 158.000 L 263.400 160.200 261.100 160.320 L 258.800 160.440 258.800 158.287 C 258.800 155.630,258.893 155.536,261.385 155.682 L 263.400 155.800 263.400 158.000 M274.600 158.000 L 274.600 160.200 272.400 160.200 L 270.200 160.200 270.075 158.454 C 269.882 155.770,270.082 155.540,272.496 155.679 L 274.600 155.800 274.600 158.000 M285.822 156.545 C 285.952 157.064,286.001 158.099,285.929 158.845 L 285.800 160.200 283.600 160.200 L 281.400 160.200 281.275 158.454 C 281.088 155.856,281.295 155.600,283.580 155.600 C 285.353 155.600,285.612 155.709,285.822 156.545 M296.720 158.100 L 296.840 160.400 294.620 160.400 L 292.400 160.400 292.400 157.979 L 292.400 155.558 294.500 155.679 L 296.600 155.800 296.720 158.100 M307.800 158.000 L 307.800 160.200 305.600 160.200 L 303.400 160.200 303.275 158.454 C 303.082 155.770,303.282 155.540,305.696 155.679 L 307.800 155.800 307.800 158.000 M319.000 158.000 L 319.000 160.200 316.800 160.200 L 314.600 160.200 314.475 158.454 C 314.282 155.770,314.482 155.540,316.896 155.679 L 319.000 155.800 319.000 158.000 M330.222 156.545 C 331.008 159.678,329.506 161.066,326.222 160.241 C 325.356 160.024,325.058 157.200,325.778 156.036 C 326.357 155.099,329.963 155.512,330.222 156.545 M341.200 158.020 L 341.200 160.440 338.913 160.320 L 336.625 160.200 336.670 158.300 C 336.694 157.255,336.734 156.220,336.757 156.000 C 336.781 155.780,337.790 155.600,339.000 155.600 L 341.200 155.600 341.200 158.020 M352.321 158.121 L 352.441 160.441 350.121 160.321 L 347.800 160.200 347.675 158.454 C 347.482 155.770,347.682 155.540,350.096 155.679 L 352.200 155.800 352.321 158.121 M357.813 156.360 C 357.117 158.552,358.559 162.001,359.696 160.864 C 360.116 160.444,359.390 157.406,358.599 156.277 C 358.094 155.556,358.067 155.559,357.813 156.360 M359.292 160.135 C 358.906 160.845,358.334 159.639,358.631 158.740 L 358.941 157.800 359.208 158.800 C 359.354 159.350,359.392 159.951,359.292 160.135 M35.897 200.324 C 35.611 200.668,35.589 201.185,35.831 201.834 L 36.200 202.821 200.000 202.815 L 363.800 202.808 364.176 201.970 C 364.412 201.446,364.412 200.916,364.176 200.558 C 363.636 199.735,36.579 199.502,35.897 200.324 M39.940 201.019 C 40.414 201.451,39.316 202.000,37.976 202.000 C 36.645 202.000,36.400 201.870,36.400 201.165 C 36.400 200.414,39.152 200.300,39.940 201.019 M363.600 201.223 C 363.600 201.942,363.389 202.030,361.931 201.923 C 359.998 201.781,359.415 200.939,361.076 200.689 C 363.398 200.340,363.600 200.383,363.600 201.223 M47.600 261.544 C 47.600 263.886,33.399 263.687,200.000 263.687 C 366.646 263.688,352.400 263.889,352.400 261.539 C 352.400 260.862,345.569 260.830,200.000 260.836 C 54.871 260.841,47.600 260.874,47.600 261.544 M53.400 262.836 C 51.197 263.331,48.899 263.235,48.670 262.639 C 48.335 261.765,48.587 261.725,51.691 262.159 C 54.116 262.498,54.400 262.611,53.400 262.836 M351.340 262.613 C 351.096 263.248,348.602 263.362,346.800 262.819 C 345.844 262.532,345.861 262.507,347.200 262.265 C 350.789 261.615,351.694 261.691,351.340 262.613 M93.615 325.000 C 93.623 325.220,94.282 325.895,95.079 326.500 L 96.529 327.600 200.000 327.600 L 303.471 327.600 304.921 326.500 C 305.718 325.895,306.377 325.220,306.385 325.000 C 306.395 324.734,270.676 324.600,200.000 324.600 C 129.324 324.600,93.605 324.734,93.615 325.000 M100.169 326.070 C 102.187 326.582,101.389 327.185,98.683 327.194 C 97.167 327.199,96.538 326.985,95.683 326.173 L 94.600 325.146 96.600 325.410 C 97.700 325.555,99.306 325.852,100.169 326.070 M304.400 326.200 C 303.425 327.238,301.739 327.457,299.600 326.824 C 298.201 326.411,300.530 325.706,304.770 325.260 C 305.142 325.221,305.013 325.547,304.400 326.200 " stroke="none" fill="#b2b2b5" fill-rule="evenodd"></path><path id="path4" d="M48.800 136.300 C 48.800 136.699,79.307 136.800,200.000 136.800 C 320.693 136.800,351.200 136.699,351.200 136.300 C 351.200 135.901,320.693 135.800,200.000 135.800 C 79.307 135.800,48.800 135.901,48.800 136.300 " stroke="none" fill="#a3934c" fill-rule="evenodd"></path></g></svg>