<svg xmlns="http://www.w3.org/2000/svg" width="50" height="50" viewBox="0 0 50 50" xmlns:xlink="http://www.w3.org/1999/xlink">
  <defs>
    <rect id="a" width="50" height="50" rx="4"/>
    <mask id="b" width="50" height="50" x="0" y="0" fill="white">
      <use xlink:href="#a"/>
    </mask>
  </defs>
  <g fill="none" fill-rule="evenodd">
    <rect width="50" height="50" fill="#221E1B" rx="4"/>
    <use stroke="#FFFFFF" stroke-opacity=".2" stroke-width="4" mask="url(#b)" opacity="0" xlink:href="#a"/>
    <path fill="#FFFFFF" d="M24.9986187,10 C16.7156757,10 10,16.8856308 10,25.3800802 C10,32.1750733 14.2975536,37.9390628 20.2581417,39.9736898 C21.0086252,40.114367 21.2821142,39.6394633 21.2821142,39.2315938 C21.2821142,38.8671548 21.2692225,37.8994088 21.2618558,36.6163193 C17.0895362,37.5453554 16.2092145,34.5543122 16.2092145,34.5543122 C15.5268731,32.7783803 14.5434175,32.3044208 14.5434175,32.3044208 C13.1814973,31.3508369 14.6465515,31.3697198 14.6465515,31.3697198 C16.1521225,31.4782962 16.9440437,32.9549349 16.9440437,32.9549349 C18.2820222,35.3049054 20.4552012,34.626067 21.3097394,34.2333038 C21.4460235,33.2391218 21.8327757,32.5612275 22.2618865,32.1769616 C18.9312134,31.788919 15.4292642,30.4690079 15.4292642,24.5756709 C15.4292642,22.8969856 16.0139967,21.5242025 16.9735105,20.4488243 C16.8188097,20.0598376 16.3040609,18.4963377 17.1199239,16.3786263 C17.1199239,16.3786263 18.3796311,15.9650919 21.2452807,17.9553441 C22.44145,17.6135646 23.725099,17.4436189 25.0004604,17.4379541 C26.2739802,17.4436189 27.5576291,17.6135646 28.7556401,17.9553441 C31.6194481,15.9650919 32.8763928,16.3786263 32.8763928,16.3786263 C33.6950183,18.4963377 33.1802695,20.0598376 33.0255686,20.4488243 C33.9869241,21.5242025 34.5679732,22.8969856 34.5679732,24.5756709 C34.5679732,30.4841142 31.0604991,31.7841983 27.7187759,32.1646877 C28.2574665,32.6395914 28.7372234,33.5780689 28.7372234,35.0131654 C28.7372234,37.0685635 28.7188066,38.7274218 28.7188066,39.2315938 C28.7188066,39.6432399 28.9886123,40.1219201 29.7501458,39.9718015 C35.7061297,37.933398 40,32.173185 40,25.3800802 C40,16.8856308 33.2834034,10 24.9986187,10"/>
  </g>
</svg>
