<svg xmlns="http://www.w3.org/2000/svg" width="50" height="50" viewBox="0 0 50 50">
  <g fill="none" fill-rule="evenodd">
    <rect width="50" height="50" fill="#264970" rx="4"/>
    <g fill="#FFFFFF" fill-rule="nonzero" transform="translate(13 10)">
      <path d="M5.14116667,1.92895288 C3.9985,1.92895288 3.07333333,2.79973822 3.07333333,3.87926702 C3.07333333,4.95612565 3.9985,5.83005236 5.14116667,5.83005236 C6.2845,5.83005236 7.20883333,4.95612565 7.20883333,3.87926702 C7.20883333,2.79973822 6.28466667,1.92895288 5.14116667,1.92895288 M18.726,1.92895288 C17.5828333,1.92895288 16.6588333,2.79973822 16.6588333,3.87926702 C16.6588333,4.95612565 17.5828333,5.83005236 18.726,5.83005236 C19.866,5.83005236 20.7933333,4.95612565 20.7933333,3.87926702 C20.7933333,2.79973822 19.866,1.93036649 18.726,1.92895288 M11.9335,0.149371728 C10.791,0.149371728 9.86583333,1.02 9.86583333,2.09984293 C9.86583333,3.17670157 10.7908333,4.05062827 11.9335,4.05062827 C13.0768333,4.05062827 14.001,3.17670157 14.001,2.09984293 C14.001,1.02 13.0766667,0.149371728 11.9333333,0.149371728 M23.6143333,7.36366492 C23.5011768,7.28247387 23.3628872,7.23849875 23.2206667,7.23848168 C23.1428333,7.23848168 23.064,7.25183246 22.9896667,7.27884817 C21.5896667,7.78350785 20.1676667,8.16659686 18.87,8.45151832 C18.6053333,8.50963351 18.3916667,8.69497382 18.303,8.9173822 C17.3575,11.3580628 14.9431667,13.682199 12.4101667,16.1164398 C12.3085,16.2073822 12.1661667,16.3273822 11.9343333,16.3273822 C11.703,16.3273822 11.562,16.2111518 11.4585,16.1164398 C8.92583333,13.682199 6.5115,11.3660733 5.56566667,8.9252356 C5.477,8.70298429 5.26316667,8.51780105 4.999,8.45937173 C3.7005,8.17445026 2.27516667,7.77942408 0.876666667,7.27507853 C0.802688087,7.2484706 0.724183208,7.23479161 0.645,7.23471204 C0.504833333,7.23471204 0.369,7.27617801 0.254333333,7.35879581 C0.0779216115,7.4859099 -0.0169650244,7.68942195 0.003,7.8978534 C0.2175,9.92748691 1.0685,11.9117277 2.60433333,13.9908377 C4.048,15.9457068 5.931,17.7551309 7.7515,19.5048691 C11.1058333,22.7294764 14.2746667,25.774712 14.5526667,29.3060733 C14.5778786,29.624921 14.8597291,29.871498 15.199,29.8715183 L19.14,29.8715183 C19.3173746,29.8713699 19.4869476,29.8027763 19.6092466,29.6817044 C19.7315456,29.5606326 19.7959013,29.3976448 19.7873333,29.2306806 C19.6633333,26.8696335 18.7205,24.5051309 16.905,22.0030366 C16.5245,21.4784293 16.117,20.9679581 15.6908333,20.4684817 C15.5176667,20.2650785 15.5901667,20.012356 15.7225,19.8848168 C15.8535,19.758534 15.985,19.6325654 16.1175,19.5048691 C17.938,17.7551309 19.8208333,15.9457068 21.2646667,13.9908377 C22.8003333,11.9114136 23.651,9.93895288 23.8656667,7.90963351 C23.887,7.70575916 23.7888333,7.48931937 23.6143333,7.36366492 M7.70533333,22.2518325 C7.612,22.1599476 7.47516667,22.066178 7.24516667,22.066178 C6.951,22.066178 6.7765,22.257801 6.7105,22.3526702 C5.05283333,24.7298953 4.19666667,26.9736126 4.07833333,29.2283246 C4.07020011,29.3958061 4.13455792,29.5592246 4.25666667,29.6811518 C4.37995431,29.8023095 4.55021062,29.8710256 4.72833333,29.8715183 L8.6625,29.8715183 C9.00245432,29.8701256 9.28446571,29.6232758 9.311,29.3038743 C9.39666667,28.2171204 9.75566667,27.1278534 10.4093333,25.9831414 C10.636,25.5871728 10.4598333,25.2150785 10.3295,25.0561257 C9.68116667,24.2613613 8.88683333,23.4136649 7.70533333,22.2518325"/>
      <path d="M11.938,9.18314136 C13.173,9.18314136 13.8893333,9.11324607 14.141,9.11324607 C14.446,9.11324607 14.7371667,9.3486911 14.7371667,9.6782199 C14.7371667,9.77434555 14.713,9.84314136 14.6891667,9.9039267 C14.5253333,10.3165445 13.7788333,11.8013089 12.389,13.0749738 C12.233,13.2179058 12.0563333,13.2446073 11.9346667,13.2446073 L11.9333333,13.2446073 C11.8118333,13.2446073 11.6353333,13.2179058 11.4795,13.0749738 C10.0895,11.8013089 9.34283333,10.3165445 9.1795,9.90376963 C9.15533333,9.84314136 9.13116667,9.77434555 9.13116667,9.6782199 C9.13116667,9.3486911 9.42283333,9.11324607 9.72783333,9.11324607 C9.9795,9.11324607 10.6953333,9.18314136 11.93,9.18314136 L11.9381667,9.18314136"/>
    </g>
  </g>
</svg>
