<svg id="svg" version="1.1" xmlns="http://www.w3.org/2000/svg" xmlns:xlink="http://www.w3.org/1999/xlink" width="400" height="400" viewBox="0, 0, 400,400"><g id="svgg"><path id="path0" d="M83.417 50.871 C 82.958 51.532,82.553 52.150,82.517 52.245 C 82.480 52.339,82.400 52.454,82.340 52.500 C 82.126 52.662,80.167 55.506,80.167 55.655 C 80.167 55.738,80.101 55.831,80.022 55.861 C 79.942 55.892,79.475 56.517,78.984 57.250 C 78.493 57.983,78.045 58.621,77.987 58.667 C 77.930 58.712,77.673 59.087,77.417 59.500 C 77.160 59.913,76.902 60.288,76.843 60.333 C 76.727 60.423,74.552 63.521,71.052 68.583 C 69.397 70.976,69.058 71.456,67.613 73.454 C 67.001 74.299,66.500 75.061,66.500 75.148 C 66.500 75.235,66.440 75.331,66.366 75.361 C 66.181 75.438,64.167 78.302,64.167 78.488 C 64.167 78.571,64.101 78.664,64.022 78.694 C 63.942 78.725,63.475 79.350,62.984 80.083 C 62.493 80.817,62.045 81.454,61.987 81.500 C 61.930 81.546,61.673 81.921,61.417 82.333 C 61.160 82.746,60.902 83.121,60.843 83.167 C 60.727 83.256,58.552 86.354,55.052 91.417 C 53.397 93.809,53.058 94.290,51.613 96.287 C 51.001 97.132,50.500 97.895,50.500 97.981 C 50.500 98.068,50.440 98.164,50.366 98.194 C 50.181 98.271,48.167 101.135,48.167 101.321 C 48.167 101.404,48.101 101.497,48.022 101.528 C 47.942 101.558,47.475 102.183,46.984 102.917 C 46.493 103.650,46.045 104.287,45.987 104.333 C 45.930 104.379,45.673 104.754,45.417 105.167 C 45.160 105.579,44.902 105.954,44.843 106.000 C 44.747 106.074,44.076 107.022,41.247 111.083 C 39.685 113.327,37.661 116.258,37.047 117.167 C 36.707 117.671,36.381 118.121,36.324 118.167 C 36.266 118.212,35.957 118.625,35.636 119.083 C 35.316 119.542,34.404 120.838,33.610 121.964 C 32.816 123.090,32.167 124.077,32.167 124.158 C 32.167 124.239,32.101 124.331,32.022 124.361 C 31.942 124.392,31.475 125.017,30.984 125.750 C 30.493 126.483,30.045 127.121,29.987 127.167 C 29.930 127.212,29.673 127.587,29.417 128.000 C 29.160 128.412,28.902 128.787,28.843 128.833 C 28.747 128.908,28.076 129.856,25.247 133.917 C 23.685 136.160,21.661 139.091,21.047 140.000 C 20.707 140.504,20.381 140.954,20.324 141.000 C 20.266 141.046,19.957 141.458,19.636 141.917 C 19.316 142.375,18.404 143.671,17.610 144.797 C 16.816 145.923,16.167 146.882,16.167 146.929 C 16.167 146.976,16.017 147.175,15.833 147.372 C 15.650 147.569,15.500 147.828,15.500 147.948 C 15.500 148.068,15.431 148.167,15.348 148.167 C 15.264 148.167,14.954 148.560,14.659 149.042 C 14.364 149.523,14.069 149.954,14.003 150.000 C 13.937 150.046,13.673 150.421,13.417 150.833 C 13.160 151.246,12.902 151.621,12.843 151.667 C 12.783 151.712,12.133 152.612,11.397 153.667 C 5.430 162.218,5.677 161.820,6.083 162.226 C 6.221 162.364,6.333 162.524,6.333 162.583 C 6.333 162.724,7.216 163.901,7.375 163.972 C 7.444 164.003,7.500 164.102,7.500 164.192 C 7.500 164.375,8.347 165.553,8.542 165.639 C 8.610 165.669,8.667 165.759,8.667 165.839 C 8.667 165.959,10.267 168.279,14.384 174.125 C 14.723 174.606,15.262 175.375,15.583 175.833 C 15.904 176.292,16.429 177.042,16.750 177.500 C 17.071 177.958,17.608 178.727,17.943 179.208 C 18.278 179.690,18.597 180.121,18.652 180.167 C 18.706 180.213,18.976 180.588,19.250 181.000 C 19.524 181.412,19.787 181.787,19.833 181.833 C 19.880 181.879,20.142 182.254,20.417 182.667 C 20.691 183.079,20.954 183.454,21.000 183.500 C 21.046 183.546,21.309 183.921,21.583 184.333 C 21.858 184.746,22.123 185.121,22.172 185.167 C 22.221 185.213,22.559 185.688,22.922 186.223 C 23.286 186.759,23.829 187.546,24.129 187.973 C 24.917 189.095,25.761 190.302,26.379 191.192 C 26.674 191.619,27.892 193.364,29.083 195.071 C 30.275 196.778,31.705 198.829,32.260 199.629 C 32.816 200.429,33.548 201.477,33.885 201.958 C 34.223 202.440,34.763 203.208,35.083 203.667 C 35.404 204.125,35.929 204.875,36.250 205.333 C 36.571 205.792,37.096 206.542,37.417 207.000 C 37.737 207.458,38.263 208.208,38.583 208.667 C 38.904 209.125,39.416 209.856,39.721 210.292 C 40.026 210.727,40.640 211.608,41.086 212.250 C 45.413 218.475,55.087 232.268,55.174 232.333 C 55.234 232.379,55.493 232.754,55.750 233.167 C 56.007 233.579,56.269 233.954,56.333 234.000 C 56.398 234.046,56.660 234.421,56.917 234.833 C 57.173 235.246,57.436 235.621,57.500 235.667 C 57.564 235.713,57.827 236.088,58.083 236.500 C 58.340 236.912,58.602 237.287,58.667 237.333 C 58.731 237.379,58.993 237.754,59.250 238.167 C 59.507 238.579,59.769 238.954,59.833 239.000 C 59.898 239.046,60.160 239.421,60.417 239.833 C 60.673 240.246,60.936 240.621,61.000 240.667 C 61.064 240.713,61.327 241.088,61.583 241.500 C 61.840 241.912,62.102 242.287,62.167 242.333 C 62.231 242.379,62.493 242.754,62.750 243.167 C 63.007 243.579,63.268 243.954,63.331 244.000 C 63.394 244.046,63.718 244.496,64.052 245.000 C 64.386 245.504,64.921 246.292,65.242 246.750 C 65.564 247.208,66.085 247.958,66.402 248.417 C 68.320 251.193,68.727 251.756,68.856 251.806 C 68.935 251.836,69.000 251.970,69.000 252.102 C 69.000 252.235,69.112 252.387,69.250 252.440 C 69.387 252.492,69.500 252.626,69.500 252.736 C 69.500 252.847,69.650 253.098,69.833 253.295 C 70.017 253.492,70.167 253.733,70.167 253.832 C 70.167 253.930,70.279 254.054,70.417 254.106 C 70.554 254.159,70.667 254.293,70.667 254.403 C 70.667 254.513,70.817 254.765,71.000 254.962 C 71.183 255.158,71.333 255.400,71.333 255.498 C 71.333 255.597,71.446 255.720,71.583 255.773 C 71.721 255.826,71.833 255.959,71.833 256.070 C 71.833 256.180,71.983 256.431,72.167 256.628 C 72.350 256.825,72.500 257.023,72.500 257.068 C 72.500 257.214,78.051 265.081,78.195 265.139 C 78.271 265.169,78.333 265.268,78.333 265.358 C 78.333 265.542,79.181 266.719,79.375 266.806 C 79.444 266.836,79.500 266.935,79.500 267.025 C 79.500 267.209,80.347 268.386,80.542 268.472 C 80.610 268.503,80.667 268.593,80.667 268.672 C 80.667 268.793,82.267 271.113,86.384 276.958 C 86.723 277.440,87.263 278.208,87.583 278.667 C 87.904 279.125,88.429 279.875,88.750 280.333 C 89.071 280.792,89.608 281.560,89.943 282.042 C 90.278 282.523,90.597 282.954,90.652 283.000 C 90.706 283.046,90.976 283.421,91.250 283.833 C 91.524 284.246,91.787 284.621,91.833 284.667 C 91.880 284.712,92.142 285.087,92.417 285.500 C 92.691 285.912,92.954 286.287,93.000 286.333 C 93.046 286.379,93.309 286.754,93.583 287.167 C 93.858 287.579,94.123 287.954,94.172 288.000 C 94.221 288.046,94.559 288.521,94.922 289.057 C 95.286 289.592,95.829 290.379,96.129 290.807 C 96.917 291.928,97.761 293.136,98.379 294.025 C 98.674 294.452,99.892 296.197,101.083 297.905 C 102.275 299.612,103.705 301.663,104.260 302.462 C 104.816 303.262,105.548 304.310,105.885 304.792 C 106.223 305.273,106.762 306.042,107.083 306.500 C 107.404 306.958,107.929 307.708,108.250 308.167 C 108.571 308.625,109.096 309.375,109.417 309.833 C 109.737 310.292,110.262 311.042,110.583 311.500 C 110.904 311.958,111.416 312.690,111.721 313.125 C 112.026 313.560,112.640 314.442,113.086 315.083 C 117.413 321.308,127.087 335.101,127.174 335.167 C 127.234 335.212,127.493 335.587,127.750 336.000 C 128.007 336.412,128.269 336.787,128.333 336.833 C 128.398 336.879,128.660 337.254,128.917 337.667 C 129.173 338.079,129.436 338.454,129.500 338.500 C 129.564 338.546,129.827 338.921,130.083 339.333 C 130.340 339.746,130.602 340.121,130.667 340.167 C 130.731 340.212,130.993 340.587,131.250 341.000 C 131.507 341.412,131.769 341.787,131.833 341.833 C 131.898 341.879,132.160 342.254,132.417 342.667 C 132.673 343.079,132.936 343.454,133.000 343.500 C 133.064 343.546,133.327 343.921,133.583 344.333 C 133.840 344.746,134.102 345.121,134.167 345.167 C 134.231 345.212,134.493 345.587,134.750 346.000 C 135.007 346.412,135.268 346.787,135.331 346.833 C 135.394 346.879,135.718 347.329,136.052 347.833 C 136.386 348.337,136.921 349.125,137.242 349.583 C 137.564 350.042,138.085 350.792,138.402 351.250 C 140.320 354.027,140.727 354.589,140.856 354.639 C 140.935 354.669,141.000 354.803,141.000 354.936 C 141.000 355.069,141.112 355.220,141.250 355.273 C 141.387 355.326,141.500 355.459,141.500 355.570 C 141.500 355.680,141.650 355.931,141.833 356.128 C 142.017 356.325,142.167 356.570,142.167 356.674 C 142.167 357.292,143.974 354.816,153.029 341.786 C 153.334 341.347,153.846 340.618,154.167 340.167 C 154.487 339.715,155.012 338.965,155.333 338.500 C 155.654 338.035,156.179 337.285,156.500 336.833 C 156.821 336.382,157.332 335.653,157.637 335.214 C 158.495 333.979,162.215 328.634,162.542 328.167 C 162.703 327.938,163.095 327.375,163.413 326.917 C 163.731 326.458,164.255 325.708,164.576 325.250 C 164.897 324.792,165.434 324.004,165.769 323.500 C 166.104 322.996,166.424 322.546,166.481 322.500 C 166.538 322.454,166.809 322.079,167.083 321.667 C 167.358 321.254,167.620 320.879,167.667 320.833 C 167.713 320.787,167.976 320.412,168.250 320.000 C 168.525 319.587,168.807 319.175,168.877 319.083 C 169.293 318.541,170.196 317.297,170.723 316.542 C 171.643 315.222,172.432 314.097,173.116 313.125 C 176.844 307.827,177.667 306.631,177.667 306.506 C 177.667 306.427,177.723 306.336,177.792 306.306 C 177.986 306.219,178.833 305.042,178.833 304.858 C 178.833 304.768,178.890 304.669,178.958 304.639 C 179.153 304.553,180.000 303.375,180.000 303.192 C 180.000 303.102,180.062 303.003,180.138 302.972 C 180.282 302.914,184.667 296.715,184.667 296.569 C 184.667 296.523,184.817 296.325,185.000 296.128 C 185.183 295.931,185.333 295.672,185.333 295.552 C 185.333 295.432,185.411 295.333,185.505 295.333 C 185.600 295.333,185.727 295.202,185.788 295.042 C 185.850 294.881,186.035 294.605,186.200 294.427 C 186.365 294.249,186.500 294.005,186.500 293.885 C 186.500 293.765,186.577 293.667,186.672 293.667 C 186.766 293.667,186.894 293.535,186.955 293.375 C 187.016 293.215,187.202 292.938,187.367 292.760 C 187.532 292.583,187.667 292.339,187.667 292.219 C 187.667 292.098,187.735 292.000,187.819 292.000 C 187.903 292.000,188.203 291.644,188.486 291.208 C 188.769 290.773,189.244 290.074,189.542 289.654 C 190.487 288.323,191.323 287.111,191.948 286.167 C 192.282 285.662,192.606 285.212,192.669 285.167 C 192.732 285.121,192.993 284.746,193.250 284.333 C 193.507 283.921,193.769 283.546,193.833 283.500 C 193.898 283.454,194.160 283.079,194.417 282.667 C 194.673 282.254,194.936 281.879,195.000 281.833 C 195.064 281.787,195.327 281.412,195.583 281.000 C 195.840 280.587,196.102 280.212,196.167 280.167 C 196.231 280.121,196.493 279.746,196.750 279.333 C 197.007 278.921,197.269 278.546,197.333 278.500 C 197.398 278.454,197.650 278.097,197.895 277.706 C 198.140 277.316,198.450 276.866,198.585 276.706 C 198.772 276.484,207.189 264.476,211.029 258.952 C 211.334 258.514,211.846 257.785,212.167 257.333 C 212.487 256.882,213.012 256.132,213.333 255.667 C 213.654 255.202,214.179 254.452,214.500 254.000 C 214.821 253.548,215.346 252.798,215.667 252.333 C 215.987 251.868,216.512 251.120,216.833 250.671 C 217.403 249.874,219.048 247.511,222.581 242.417 C 222.898 241.958,223.404 241.234,223.704 240.807 C 224.004 240.379,224.547 239.592,224.911 239.057 C 225.274 238.521,225.612 238.046,225.661 238.000 C 225.711 237.954,225.976 237.579,226.250 237.167 C 226.524 236.754,226.787 236.379,226.833 236.333 C 226.880 236.287,227.142 235.912,227.417 235.500 C 227.691 235.088,227.960 234.713,228.015 234.667 C 228.070 234.621,228.389 234.190,228.724 233.708 C 229.522 232.562,230.355 231.373,231.116 230.292 C 234.844 224.994,235.667 223.798,235.667 223.673 C 235.667 223.593,235.723 223.503,235.792 223.472 C 235.986 223.386,236.833 222.209,236.833 222.025 C 236.833 221.935,236.890 221.836,236.958 221.806 C 237.153 221.719,238.000 220.542,238.000 220.358 C 238.000 220.268,238.062 220.169,238.139 220.139 C 238.333 220.061,243.333 212.900,243.333 212.700 C 243.333 212.609,243.446 212.492,243.583 212.440 C 243.721 212.387,243.833 212.263,243.833 212.165 C 243.833 212.067,243.983 211.825,244.167 211.628 C 244.350 211.431,244.500 211.180,244.500 211.070 C 244.500 210.959,244.612 210.826,244.750 210.773 C 244.887 210.720,245.000 210.597,245.000 210.498 C 245.000 210.400,245.150 210.158,245.333 209.962 C 245.517 209.765,245.667 209.513,245.667 209.403 C 245.667 209.293,245.779 209.159,245.917 209.106 C 246.054 209.054,246.167 208.930,246.167 208.832 C 246.167 208.733,246.241 208.562,246.331 208.451 C 246.908 207.743,247.340 207.166,247.727 206.583 C 247.971 206.217,248.434 205.542,248.756 205.083 C 249.078 204.625,249.614 203.838,249.948 203.333 C 250.282 202.829,250.606 202.379,250.669 202.333 C 250.732 202.287,250.993 201.912,251.250 201.500 C 251.507 201.088,251.769 200.713,251.833 200.667 C 251.898 200.621,252.160 200.246,252.417 199.833 C 252.673 199.421,252.936 199.046,253.000 199.000 C 253.064 198.954,253.327 198.579,253.583 198.167 C 253.840 197.754,254.102 197.379,254.167 197.333 C 254.231 197.287,254.493 196.912,254.750 196.500 C 255.007 196.088,255.269 195.713,255.333 195.667 C 255.398 195.621,255.660 195.246,255.917 194.833 C 256.173 194.421,256.436 194.046,256.500 194.000 C 256.564 193.954,256.796 193.642,257.016 193.305 C 257.237 192.969,259.775 189.332,262.658 185.222 C 265.540 181.112,268.147 177.394,268.449 176.958 C 268.752 176.523,269.262 175.792,269.583 175.333 C 269.904 174.875,270.429 174.125,270.750 173.667 C 271.071 173.208,271.596 172.458,271.917 172.000 C 272.237 171.542,272.762 170.792,273.083 170.333 C 273.404 169.875,273.943 169.106,274.282 168.625 C 274.620 168.144,275.339 167.112,275.879 166.333 C 276.420 165.554,277.587 163.877,278.473 162.606 C 279.359 161.335,280.346 159.916,280.667 159.452 C 280.987 158.988,281.475 158.290,281.750 157.902 C 282.025 157.514,282.547 156.759,282.911 156.223 C 283.274 155.688,283.612 155.212,283.661 155.167 C 283.711 155.121,283.976 154.746,284.250 154.333 C 284.524 153.921,284.787 153.546,284.833 153.500 C 284.880 153.454,285.142 153.079,285.417 152.667 C 285.692 152.254,285.974 151.842,286.044 151.750 C 286.459 151.207,287.362 149.963,287.889 149.208 C 288.225 148.727,288.777 147.940,289.116 147.458 C 293.233 141.613,294.833 139.293,294.833 139.172 C 294.833 139.093,294.890 139.003,294.958 138.972 C 295.153 138.886,296.000 137.709,296.000 137.525 C 296.000 137.435,296.056 137.336,296.125 137.306 C 296.319 137.219,297.167 136.042,297.167 135.858 C 297.167 135.768,297.229 135.669,297.305 135.639 C 297.510 135.556,301.333 130.062,301.333 129.849 C 301.333 129.749,301.411 129.667,301.505 129.667 C 301.600 129.667,301.727 129.535,301.788 129.375 C 301.850 129.215,302.035 128.938,302.200 128.760 C 302.365 128.583,302.500 128.339,302.500 128.219 C 302.500 128.098,302.577 128.000,302.672 128.000 C 302.766 128.000,302.894 127.869,302.955 127.708 C 303.016 127.548,303.202 127.271,303.367 127.094 C 303.532 126.916,303.667 126.680,303.667 126.570 C 303.667 126.459,303.779 126.326,303.917 126.273 C 304.054 126.220,304.167 126.069,304.167 125.936 C 304.167 125.803,304.232 125.669,304.312 125.639 C 304.391 125.608,304.860 124.999,305.353 124.284 C 305.846 123.569,306.496 122.632,306.796 122.201 C 307.096 121.769,307.614 121.004,307.948 120.500 C 308.282 119.996,308.606 119.546,308.669 119.500 C 308.732 119.454,308.993 119.079,309.250 118.667 C 309.507 118.254,309.769 117.879,309.833 117.833 C 309.898 117.787,310.160 117.412,310.417 117.000 C 310.673 116.587,310.936 116.212,311.000 116.167 C 311.064 116.121,311.327 115.746,311.583 115.333 C 311.840 114.921,312.102 114.546,312.167 114.500 C 312.231 114.454,312.493 114.079,312.750 113.667 C 313.007 113.254,313.269 112.879,313.333 112.833 C 313.398 112.787,313.660 112.412,313.917 112.000 C 314.173 111.587,314.436 111.212,314.500 111.167 C 314.564 111.121,314.827 110.746,315.083 110.333 C 315.340 109.921,315.600 109.546,315.661 109.500 C 315.722 109.454,316.018 109.055,316.318 108.614 L 316.865 107.811 317.257 108.364 C 317.472 108.668,317.784 109.102,317.949 109.329 C 318.115 109.556,318.816 110.569,319.509 111.579 C 320.201 112.590,321.134 113.942,321.581 114.583 C 325.407 120.070,326.247 121.261,326.342 121.333 C 326.401 121.379,326.660 121.754,326.917 122.167 C 327.173 122.579,327.430 122.954,327.487 123.000 C 327.545 123.046,327.993 123.683,328.484 124.417 C 328.975 125.150,329.442 125.775,329.522 125.806 C 329.601 125.836,329.667 125.970,329.667 126.102 C 329.667 126.235,329.779 126.387,329.917 126.440 C 330.054 126.492,330.167 126.612,330.167 126.705 C 330.167 126.904,331.671 129.057,331.866 129.139 C 331.940 129.169,332.000 129.263,332.000 129.347 C 332.000 129.430,332.361 130.005,332.803 130.624 C 333.245 131.243,333.894 132.162,334.246 132.667 C 334.598 133.171,334.933 133.621,334.990 133.667 C 335.048 133.712,335.373 134.162,335.714 134.667 C 336.964 136.518,339.101 139.591,342.009 143.724 C 342.967 145.084,343.930 146.471,344.150 146.807 C 344.370 147.142,344.603 147.454,344.667 147.500 C 344.731 147.546,344.993 147.921,345.250 148.333 C 345.507 148.746,345.770 149.121,345.836 149.167 C 345.902 149.212,346.198 149.644,346.492 150.125 C 346.787 150.606,347.097 151.000,347.181 151.000 C 347.265 151.000,347.333 151.098,347.333 151.219 C 347.333 151.339,347.483 151.598,347.667 151.795 C 347.850 151.992,348.000 152.193,348.000 152.241 C 348.000 152.384,350.053 155.245,350.200 155.306 C 350.273 155.336,350.333 155.431,350.333 155.517 C 350.333 155.603,350.856 156.403,351.496 157.295 C 352.135 158.187,352.754 159.057,352.871 159.229 C 352.988 159.400,353.160 159.625,353.253 159.729 C 353.346 159.832,353.694 160.328,354.026 160.831 L 354.630 161.744 353.440 163.459 C 350.920 167.089,350.209 168.112,349.615 168.958 C 349.277 169.440,348.738 170.208,348.417 170.667 C 348.096 171.125,347.571 171.875,347.250 172.333 C 346.929 172.792,346.390 173.560,346.052 174.042 C 345.713 174.523,344.995 175.554,344.454 176.333 C 343.914 177.112,342.747 178.790,341.861 180.061 C 340.975 181.331,339.987 182.751,339.667 183.215 C 339.346 183.679,338.858 184.376,338.583 184.764 C 338.308 185.153,337.786 185.908,337.422 186.443 C 337.059 186.979,336.721 187.454,336.672 187.500 C 336.623 187.546,336.358 187.921,336.083 188.333 C 335.808 188.746,335.526 189.158,335.456 189.250 C 335.041 189.793,334.138 191.037,333.611 191.792 C 333.275 192.273,332.723 193.060,332.384 193.542 C 328.656 198.839,327.833 200.035,327.833 200.160 C 327.833 200.240,327.777 200.331,327.708 200.361 C 327.514 200.447,326.667 201.625,326.667 201.808 C 326.667 201.898,326.610 201.997,326.542 202.028 C 326.347 202.114,325.500 203.291,325.500 203.475 C 325.500 203.565,325.438 203.664,325.362 203.694 C 325.218 203.752,320.833 209.952,320.833 210.098 C 320.833 210.143,320.683 210.342,320.500 210.538 C 320.317 210.735,320.167 210.987,320.167 211.097 C 320.167 211.207,320.054 211.341,319.917 211.394 C 319.779 211.446,319.667 211.570,319.667 211.668 C 319.667 211.767,319.517 212.008,319.333 212.205 C 319.150 212.402,319.000 212.653,319.000 212.764 C 319.000 212.874,318.888 213.008,318.750 213.060 C 318.613 213.113,318.500 213.265,318.500 213.398 C 318.500 213.530,318.435 213.664,318.355 213.694 C 318.275 213.725,317.807 214.335,317.313 215.049 C 316.820 215.764,316.171 216.702,315.871 217.133 C 315.571 217.564,315.052 218.329,314.719 218.833 C 314.385 219.338,314.061 219.787,313.998 219.833 C 313.935 219.879,313.673 220.254,313.417 220.667 C 313.160 221.079,312.898 221.454,312.833 221.500 C 312.769 221.546,312.507 221.921,312.250 222.333 C 311.993 222.746,311.731 223.121,311.667 223.167 C 311.602 223.213,311.340 223.588,311.083 224.000 C 310.827 224.412,310.564 224.787,310.500 224.833 C 310.436 224.879,310.173 225.254,309.917 225.667 C 309.660 226.079,309.398 226.454,309.333 226.500 C 309.269 226.546,309.007 226.921,308.750 227.333 C 308.493 227.746,308.234 228.121,308.174 228.167 C 308.086 228.233,301.567 237.520,297.586 243.250 C 297.140 243.892,296.526 244.773,296.221 245.208 C 295.916 245.644,295.404 246.375,295.083 246.833 C 294.762 247.292,294.237 248.042,293.917 248.500 C 293.596 248.958,293.057 249.727,292.718 250.208 C 292.380 250.690,291.661 251.721,291.121 252.500 C 290.580 253.279,289.413 254.956,288.527 256.227 C 287.641 257.498,286.654 258.918,286.333 259.382 C 286.012 259.846,285.525 260.543,285.250 260.931 C 284.975 261.319,284.453 262.075,284.089 262.610 C 283.726 263.145,283.388 263.621,283.339 263.667 C 283.289 263.712,283.024 264.087,282.750 264.500 C 282.476 264.912,282.213 265.287,282.167 265.333 C 282.120 265.379,281.858 265.754,281.583 266.167 C 281.309 266.579,281.040 266.954,280.985 267.000 C 280.930 267.046,280.611 267.477,280.276 267.958 C 279.478 269.105,278.645 270.293,277.884 271.375 C 274.156 276.673,273.333 277.869,273.333 277.994 C 273.333 278.073,273.277 278.164,273.208 278.194 C 273.014 278.281,272.167 279.458,272.167 279.642 C 272.167 279.732,272.110 279.831,272.042 279.861 C 271.847 279.947,271.000 281.125,271.000 281.308 C 271.000 281.398,270.939 281.497,270.863 281.528 C 270.719 281.587,267.500 286.118,267.500 286.262 C 267.500 286.309,267.350 286.508,267.167 286.705 C 266.983 286.902,266.833 287.153,266.833 287.264 C 266.833 287.374,266.721 287.508,266.583 287.560 C 266.446 287.613,266.333 287.737,266.333 287.835 C 266.333 287.933,266.183 288.175,266.000 288.372 C 265.817 288.569,265.667 288.820,265.667 288.930 C 265.667 289.041,265.554 289.174,265.417 289.227 C 265.279 289.280,265.167 289.403,265.167 289.502 C 265.167 289.600,265.017 289.842,264.833 290.038 C 264.650 290.235,264.500 290.495,264.500 290.615 C 264.500 290.735,264.431 290.833,264.348 290.833 C 264.264 290.833,263.964 291.190,263.681 291.625 C 263.398 292.060,262.902 292.792,262.579 293.250 C 262.256 293.708,261.719 294.496,261.385 295.000 C 261.052 295.504,260.727 295.954,260.664 296.000 C 260.601 296.046,260.339 296.419,260.082 296.830 C 259.825 297.240,259.513 297.677,259.390 297.801 C 259.266 297.925,259.087 298.170,258.993 298.346 C 258.809 298.691,258.500 298.780,258.500 298.489 C 258.500 298.295,257.661 297.118,257.458 297.028 C 257.390 296.997,257.333 296.898,257.333 296.808 C 257.333 296.625,256.486 295.447,256.292 295.361 C 256.223 295.331,256.167 295.232,256.167 295.142 C 256.167 294.958,255.319 293.781,255.125 293.694 C 255.056 293.664,255.000 293.574,255.000 293.495 C 255.000 293.378,252.569 289.862,248.116 283.542 C 247.777 283.060,247.237 282.292,246.917 281.833 C 246.596 281.375,246.071 280.625,245.750 280.167 C 245.429 279.708,244.892 278.940,244.556 278.458 C 244.029 277.703,243.126 276.459,242.711 275.917 C 242.641 275.825,242.358 275.412,242.083 275.000 C 241.157 273.611,241.072 273.581,240.537 274.460 C 240.157 275.085,238.986 276.764,238.701 277.091 C 238.618 277.187,238.288 277.637,237.968 278.091 C 237.649 278.545,236.737 279.838,235.943 280.964 C 235.150 282.090,234.500 283.077,234.500 283.158 C 234.500 283.239,234.440 283.331,234.366 283.361 C 234.171 283.443,232.667 285.596,232.667 285.795 C 232.667 285.888,232.554 286.008,232.417 286.060 C 232.279 286.113,232.167 286.237,232.167 286.335 C 232.167 286.433,232.017 286.675,231.833 286.872 C 231.650 287.069,231.500 287.328,231.500 287.448 C 231.500 287.568,231.431 287.667,231.348 287.667 C 231.264 287.667,230.963 288.023,230.679 288.458 C 229.689 289.977,229.160 290.752,228.918 291.040 C 228.783 291.199,228.473 291.649,228.228 292.040 C 227.984 292.430,227.735 292.787,227.675 292.833 C 227.581 292.905,226.122 294.975,222.916 299.583 C 220.859 302.541,220.768 302.693,220.926 302.902 C 221.013 303.017,221.366 303.518,221.713 304.014 C 222.605 305.294,223.421 306.461,224.045 307.349 C 224.341 307.770,224.808 308.443,225.083 308.844 C 225.358 309.245,226.947 311.525,228.613 313.911 C 230.280 316.298,231.893 318.609,232.197 319.048 C 232.501 319.486,233.012 320.215,233.333 320.667 C 233.654 321.118,234.179 321.868,234.500 322.333 C 234.821 322.798,235.346 323.548,235.667 324.000 C 235.987 324.452,236.512 325.202,236.833 325.667 C 237.154 326.132,237.679 326.882,238.000 327.333 C 238.321 327.785,238.846 328.535,239.167 329.000 C 239.487 329.465,240.012 330.216,240.333 330.669 C 240.974 331.574,241.784 332.729,242.638 333.954 C 242.943 334.392,246.604 339.625,250.773 345.583 C 254.942 351.542,258.413 356.519,258.486 356.644 C 258.637 356.905,259.333 356.425,259.333 356.060 C 259.333 355.951,259.399 355.836,259.478 355.806 C 259.558 355.775,260.027 355.165,260.520 354.451 C 261.013 353.736,261.662 352.798,261.962 352.367 C 262.263 351.936,262.781 351.171,263.115 350.667 C 263.448 350.162,263.773 349.712,263.836 349.667 C 263.899 349.621,264.160 349.246,264.417 348.833 C 264.673 348.421,264.936 348.046,265.000 348.000 C 265.064 347.954,265.327 347.579,265.583 347.167 C 265.840 346.754,266.102 346.379,266.167 346.333 C 266.231 346.287,266.493 345.912,266.750 345.500 C 267.007 345.087,267.269 344.712,267.333 344.667 C 267.398 344.621,267.660 344.246,267.917 343.833 C 268.173 343.421,268.432 343.046,268.493 343.000 C 268.581 342.933,274.088 335.090,277.914 329.583 C 278.360 328.942,278.974 328.060,279.279 327.625 C 279.584 327.190,280.096 326.458,280.417 326.000 C 280.737 325.542,281.277 324.773,281.615 324.292 C 281.953 323.810,282.672 322.779,283.213 322.000 C 283.753 321.221,284.920 319.544,285.806 318.273 C 286.692 317.002,287.659 315.615,287.955 315.190 C 288.251 314.764,288.767 314.004,289.102 313.500 C 289.437 312.996,289.757 312.546,289.814 312.500 C 289.871 312.454,290.142 312.079,290.417 311.667 C 290.691 311.254,290.954 310.879,291.000 310.833 C 291.046 310.787,291.309 310.412,291.583 310.000 C 291.858 309.587,292.127 309.212,292.182 309.167 C 292.236 309.121,292.555 308.690,292.890 308.208 C 294.159 306.387,295.025 305.153,297.223 302.036 C 298.017 300.910,298.667 299.923,298.667 299.842 C 298.667 299.761,298.723 299.669,298.792 299.639 C 298.986 299.553,299.833 298.375,299.833 298.192 C 299.833 298.102,299.890 298.003,299.958 297.972 C 300.153 297.886,301.000 296.709,301.000 296.525 C 301.000 296.435,301.061 296.336,301.137 296.306 C 301.281 296.247,304.500 291.716,304.500 291.571 C 304.500 291.524,304.650 291.325,304.833 291.128 C 305.017 290.931,305.167 290.680,305.167 290.570 C 305.167 290.459,305.279 290.326,305.417 290.273 C 305.554 290.220,305.667 290.097,305.667 289.998 C 305.667 289.900,305.817 289.658,306.000 289.462 C 306.183 289.265,306.333 289.013,306.333 288.903 C 306.333 288.793,306.446 288.659,306.583 288.606 C 306.721 288.554,306.833 288.430,306.833 288.332 C 306.833 288.233,306.907 288.062,306.997 287.951 C 307.575 287.243,308.006 286.666,308.394 286.083 C 308.638 285.717,309.101 285.042,309.423 284.583 C 309.745 284.125,310.281 283.337,310.615 282.833 C 310.948 282.329,311.273 281.879,311.336 281.833 C 311.399 281.787,311.660 281.412,311.917 281.000 C 312.173 280.587,312.436 280.212,312.500 280.167 C 312.564 280.121,312.827 279.746,313.083 279.333 C 313.340 278.921,313.602 278.546,313.667 278.500 C 313.731 278.454,313.993 278.079,314.250 277.667 C 314.507 277.254,314.769 276.879,314.833 276.833 C 314.898 276.787,315.160 276.412,315.417 276.000 C 315.673 275.587,315.932 275.212,315.993 275.167 C 316.081 275.099,321.588 267.257,325.414 261.750 C 325.860 261.108,326.474 260.227,326.779 259.792 C 327.084 259.356,327.596 258.625,327.917 258.167 C 328.237 257.708,328.777 256.940,329.115 256.458 C 329.453 255.977,330.172 254.946,330.713 254.167 C 331.566 252.936,333.843 249.667,335.417 247.413 C 335.692 247.019,336.214 246.259,336.578 245.723 C 336.941 245.188,337.279 244.713,337.328 244.667 C 337.377 244.621,337.642 244.246,337.917 243.833 C 338.191 243.421,338.454 243.046,338.500 243.000 C 338.546 242.954,338.809 242.579,339.083 242.167 C 339.358 241.754,339.627 241.379,339.682 241.333 C 339.736 241.287,340.055 240.856,340.390 240.375 C 340.726 239.894,341.277 239.106,341.616 238.625 C 345.344 233.327,346.167 232.131,346.167 232.006 C 346.167 231.927,346.223 231.836,346.292 231.806 C 346.486 231.719,347.333 230.542,347.333 230.358 C 347.333 230.268,347.390 230.169,347.458 230.139 C 347.653 230.053,348.500 228.875,348.500 228.692 C 348.500 228.602,348.561 228.503,348.637 228.472 C 348.781 228.413,352.000 223.882,352.000 223.738 C 352.000 223.691,352.150 223.492,352.333 223.295 C 352.517 223.098,352.667 222.847,352.667 222.736 C 352.667 222.626,352.779 222.492,352.917 222.440 C 353.054 222.387,353.167 222.263,353.167 222.165 C 353.167 222.067,353.317 221.825,353.500 221.628 C 353.683 221.431,353.833 221.180,353.833 221.070 C 353.833 220.959,353.946 220.826,354.083 220.773 C 354.221 220.720,354.333 220.597,354.333 220.498 C 354.333 220.400,354.407 220.229,354.497 220.118 C 355.075 219.410,355.506 218.833,355.894 218.250 C 356.138 217.883,356.601 217.208,356.923 216.750 C 357.245 216.292,357.781 215.504,358.115 215.000 C 358.448 214.496,358.773 214.046,358.836 214.000 C 358.899 213.954,359.160 213.579,359.417 213.167 C 359.673 212.754,359.936 212.379,360.000 212.333 C 360.064 212.287,360.327 211.912,360.583 211.500 C 360.840 211.088,361.102 210.713,361.167 210.667 C 361.231 210.621,361.493 210.246,361.750 209.833 C 362.007 209.421,362.269 209.046,362.333 209.000 C 362.398 208.954,362.650 208.597,362.895 208.206 C 363.140 207.816,363.450 207.366,363.585 207.206 C 363.775 206.981,369.996 198.108,373.696 192.786 C 374.001 192.347,374.512 191.617,374.833 191.164 C 375.518 190.198,376.363 188.993,377.137 187.879 C 377.441 187.442,378.372 186.108,379.206 184.917 C 380.039 183.725,381.103 182.197,381.569 181.520 C 382.035 180.844,382.642 179.970,382.917 179.577 C 383.192 179.184,383.714 178.425,384.078 177.890 C 384.441 177.355,384.779 176.879,384.828 176.833 C 384.877 176.787,385.142 176.412,385.417 176.000 C 385.691 175.588,385.954 175.213,386.000 175.167 C 386.046 175.121,386.309 174.746,386.583 174.333 C 386.858 173.921,387.127 173.546,387.182 173.500 C 387.236 173.454,387.555 173.023,387.890 172.542 C 388.226 172.060,388.777 171.273,389.116 170.792 C 392.844 165.494,393.667 164.298,393.667 164.173 C 393.667 164.093,393.723 164.003,393.792 163.972 C 393.951 163.901,394.833 162.724,394.833 162.583 C 394.833 162.524,394.946 162.364,395.083 162.226 C 395.477 161.832,395.571 162.018,393.390 158.875 C 392.992 158.302,392.316 157.327,391.887 156.708 C 389.604 153.417,388.420 151.741,388.324 151.667 C 388.265 151.621,388.007 151.246,387.750 150.833 C 387.493 150.421,387.230 150.046,387.164 150.000 C 387.098 149.954,386.802 149.523,386.508 149.042 C 386.213 148.560,385.903 148.167,385.819 148.167 C 385.735 148.167,385.667 148.068,385.667 147.948 C 385.667 147.828,385.517 147.569,385.333 147.372 C 385.150 147.175,385.000 146.968,385.000 146.913 C 385.000 146.774,384.114 145.597,383.958 145.528 C 383.890 145.497,383.833 145.404,383.833 145.320 C 383.833 145.236,383.472 144.661,383.030 144.042 C 382.589 143.423,381.939 142.504,381.587 142.000 C 381.235 141.496,380.901 141.046,380.843 141.000 C 380.786 140.954,380.460 140.504,380.119 140.000 C 379.505 139.091,377.482 136.160,375.919 133.917 C 373.091 129.856,372.420 128.908,372.324 128.833 C 372.265 128.787,372.007 128.412,371.750 128.000 C 371.493 127.587,371.230 127.212,371.164 127.167 C 371.098 127.121,370.802 126.690,370.508 126.208 C 370.213 125.727,369.903 125.333,369.819 125.333 C 369.735 125.333,369.667 125.235,369.667 125.115 C 369.667 124.995,369.517 124.735,369.333 124.538 C 369.150 124.342,369.000 124.142,369.000 124.096 C 369.000 124.049,368.350 123.090,367.557 121.964 C 366.763 120.838,365.851 119.542,365.530 119.083 C 365.210 118.625,364.901 118.212,364.843 118.167 C 364.786 118.121,364.460 117.671,364.119 117.167 C 363.505 116.258,361.482 113.327,359.919 111.083 C 357.091 107.022,356.420 106.074,356.324 106.000 C 356.265 105.954,356.007 105.579,355.750 105.167 C 355.493 104.754,355.237 104.379,355.179 104.333 C 355.122 104.287,354.674 103.650,354.183 102.917 C 353.692 102.183,353.225 101.558,353.145 101.528 C 353.065 101.497,353.000 101.406,353.000 101.325 C 353.000 101.244,352.350 100.256,351.557 99.130 C 350.763 98.005,349.851 96.708,349.530 96.250 C 349.210 95.792,348.901 95.379,348.843 95.333 C 348.786 95.287,348.460 94.837,348.119 94.333 C 347.505 93.424,345.482 90.493,343.919 88.250 C 341.091 84.189,340.420 83.241,340.324 83.167 C 340.265 83.121,340.007 82.746,339.750 82.333 C 339.493 81.921,339.237 81.546,339.179 81.500 C 339.122 81.454,338.674 80.817,338.183 80.083 C 337.692 79.350,337.225 78.725,337.145 78.694 C 337.065 78.664,337.000 78.571,337.000 78.488 C 337.000 78.302,334.986 75.438,334.800 75.361 C 334.727 75.331,334.667 75.235,334.667 75.148 C 334.667 75.061,334.166 74.299,333.554 73.454 C 332.108 71.456,331.769 70.976,330.115 68.583 C 326.614 63.521,324.440 60.423,324.324 60.333 C 324.265 60.288,324.007 59.913,323.750 59.500 C 323.493 59.087,323.237 58.712,323.179 58.667 C 323.122 58.621,322.674 57.983,322.183 57.250 C 321.692 56.517,321.225 55.892,321.145 55.861 C 321.065 55.831,321.000 55.738,321.000 55.655 C 321.000 55.506,319.041 52.662,318.827 52.500 C 318.766 52.454,318.687 52.339,318.650 52.245 C 318.530 51.935,316.919 49.668,316.818 49.668 C 316.764 49.667,316.640 49.835,316.542 50.042 C 316.443 50.248,316.208 50.604,316.018 50.833 C 315.756 51.150,306.617 64.177,302.304 70.381 C 302.000 70.820,301.487 71.548,301.167 72.000 C 300.846 72.452,300.321 73.202,300.000 73.667 C 299.679 74.132,299.154 74.882,298.833 75.333 C 298.512 75.785,297.987 76.535,297.667 77.000 C 297.346 77.465,296.821 78.213,296.500 78.663 C 295.950 79.435,292.967 83.709,291.040 86.486 C 290.558 87.181,289.904 88.125,289.586 88.583 C 289.268 89.042,288.763 89.766,288.462 90.193 C 288.162 90.621,287.619 91.408,287.256 91.943 C 286.892 92.479,286.555 92.954,286.505 93.000 C 286.456 93.046,286.191 93.421,285.917 93.833 C 285.642 94.246,285.380 94.621,285.333 94.667 C 285.287 94.712,285.024 95.087,284.750 95.500 C 284.476 95.912,284.213 96.287,284.167 96.333 C 284.120 96.379,283.858 96.754,283.583 97.167 C 283.309 97.579,283.040 97.954,282.985 98.000 C 282.930 98.046,282.611 98.477,282.276 98.958 C 281.457 100.134,280.628 101.318,279.884 102.375 C 275.767 108.221,274.167 110.541,274.167 110.661 C 274.167 110.741,274.110 110.831,274.042 110.861 C 273.847 110.947,273.000 112.125,273.000 112.308 C 273.000 112.398,272.944 112.497,272.875 112.528 C 272.681 112.614,271.833 113.791,271.833 113.975 C 271.833 114.065,271.771 114.164,271.695 114.194 C 271.489 114.277,266.500 121.439,266.500 121.652 C 266.500 121.752,266.423 121.833,266.328 121.833 C 266.234 121.833,266.106 121.965,266.045 122.125 C 265.984 122.285,265.798 122.562,265.633 122.740 C 265.468 122.917,265.333 123.161,265.333 123.281 C 265.333 123.402,265.256 123.500,265.161 123.500 C 265.067 123.500,264.939 123.631,264.878 123.792 C 264.817 123.952,264.632 124.229,264.467 124.406 C 264.302 124.584,264.167 124.828,264.167 124.948 C 264.167 125.068,264.089 125.167,263.995 125.167 C 263.900 125.167,263.773 125.298,263.712 125.458 C 263.650 125.619,263.465 125.895,263.300 126.073 C 263.135 126.251,263.000 126.495,263.000 126.615 C 263.000 126.735,262.931 126.833,262.848 126.833 C 262.764 126.833,262.464 127.190,262.181 127.625 C 261.898 128.060,261.422 128.760,261.125 129.179 C 260.179 130.511,259.343 131.722,258.718 132.667 C 258.385 133.171,258.061 133.621,257.998 133.667 C 257.935 133.712,257.673 134.087,257.417 134.500 C 257.160 134.912,256.898 135.287,256.833 135.333 C 256.769 135.379,256.507 135.754,256.250 136.167 C 255.993 136.579,255.731 136.954,255.667 137.000 C 255.602 137.046,255.340 137.421,255.083 137.833 C 254.827 138.246,254.564 138.621,254.500 138.667 C 254.436 138.712,254.173 139.087,253.917 139.500 C 253.660 139.912,253.398 140.287,253.333 140.333 C 253.269 140.379,253.007 140.754,252.750 141.167 C 252.493 141.579,252.231 141.954,252.167 142.000 C 252.102 142.046,251.850 142.403,251.605 142.794 C 251.360 143.184,251.050 143.634,250.915 143.794 C 250.729 144.014,241.198 157.613,237.304 163.214 C 237.000 163.653,236.487 164.382,236.167 164.833 C 235.846 165.285,235.321 166.035,235.000 166.500 C 234.679 166.965,234.154 167.715,233.833 168.167 C 233.512 168.618,232.987 169.368,232.667 169.833 C 232.346 170.298,231.821 171.047,231.500 171.496 C 230.950 172.268,227.967 176.542,226.040 179.320 C 225.558 180.015,224.904 180.958,224.586 181.417 C 224.268 181.875,223.763 182.600,223.462 183.027 C 223.162 183.454,222.619 184.241,222.256 184.777 C 221.892 185.312,221.555 185.787,221.505 185.833 C 221.456 185.879,221.191 186.254,220.917 186.667 C 220.642 187.079,220.380 187.454,220.333 187.500 C 220.287 187.546,220.024 187.921,219.750 188.333 C 219.475 188.746,219.193 189.158,219.123 189.250 C 218.707 189.793,217.804 191.037,217.277 191.792 C 216.331 193.148,215.557 194.252,214.884 195.208 C 210.767 201.054,209.167 203.374,209.167 203.495 C 209.167 203.574,209.110 203.664,209.042 203.694 C 208.847 203.781,208.000 204.958,208.000 205.142 C 208.000 205.232,207.944 205.331,207.875 205.361 C 207.681 205.447,206.833 206.625,206.833 206.808 C 206.833 206.898,206.771 206.997,206.695 207.028 C 206.500 207.106,201.500 214.267,201.500 214.467 C 201.500 214.557,201.387 214.674,201.250 214.727 C 201.112 214.780,201.000 214.903,201.000 215.002 C 201.000 215.100,200.850 215.342,200.667 215.538 C 200.483 215.735,200.333 215.987,200.333 216.097 C 200.333 216.207,200.221 216.341,200.083 216.394 C 199.946 216.446,199.833 216.570,199.833 216.668 C 199.833 216.767,199.683 217.008,199.500 217.205 C 199.317 217.402,199.167 217.653,199.167 217.764 C 199.167 217.874,199.054 218.008,198.917 218.060 C 198.779 218.113,198.667 218.265,198.667 218.398 C 198.667 218.530,198.602 218.664,198.523 218.694 C 198.394 218.744,197.987 219.307,196.069 222.083 C 195.752 222.542,195.230 223.292,194.909 223.750 C 194.588 224.208,194.052 224.996,193.719 225.500 C 193.385 226.004,193.061 226.454,192.998 226.500 C 192.935 226.546,192.673 226.921,192.417 227.333 C 192.160 227.746,191.898 228.121,191.833 228.167 C 191.769 228.213,191.507 228.588,191.250 229.000 C 190.993 229.412,190.731 229.787,190.667 229.833 C 190.602 229.879,190.340 230.254,190.083 230.667 C 189.827 231.079,189.564 231.454,189.500 231.500 C 189.436 231.546,189.173 231.921,188.917 232.333 C 188.660 232.746,188.398 233.121,188.333 233.167 C 188.269 233.213,188.007 233.588,187.750 234.000 C 187.493 234.412,187.231 234.787,187.167 234.833 C 187.102 234.879,186.850 235.236,186.605 235.627 C 186.360 236.018,186.050 236.468,185.915 236.627 C 185.729 236.848,176.198 250.446,172.304 256.048 C 172.000 256.486,171.487 257.215,171.167 257.667 C 170.846 258.118,170.321 258.868,170.000 259.333 C 169.679 259.798,169.154 260.548,168.833 261.000 C 168.512 261.452,167.987 262.202,167.667 262.667 C 167.346 263.132,166.821 263.880,166.500 264.330 C 165.950 265.101,162.967 269.375,161.040 272.153 C 160.558 272.848,159.904 273.792,159.586 274.250 C 159.268 274.708,158.763 275.433,158.462 275.860 C 158.162 276.287,157.619 277.075,157.256 277.610 C 156.892 278.145,156.555 278.621,156.505 278.667 C 156.456 278.712,156.191 279.087,155.917 279.500 C 155.642 279.912,155.380 280.287,155.333 280.333 C 155.287 280.379,155.024 280.754,154.750 281.167 C 154.475 281.579,154.193 281.992,154.123 282.083 C 153.707 282.626,152.804 283.870,152.277 284.625 C 151.331 285.981,150.557 287.086,149.884 288.042 C 145.767 293.887,144.167 296.207,144.167 296.328 C 144.167 296.407,144.110 296.497,144.042 296.528 C 143.886 296.597,143.000 297.774,143.000 297.913 C 143.000 297.968,142.865 298.159,142.700 298.336 C 142.350 298.712,142.218 298.607,141.395 297.294 C 141.150 296.903,140.899 296.546,140.836 296.500 C 140.773 296.454,140.448 296.004,140.115 295.500 C 139.781 294.996,139.245 294.208,138.923 293.750 C 138.601 293.292,138.138 292.617,137.894 292.250 C 137.506 291.667,137.075 291.090,136.497 290.382 C 136.407 290.271,136.333 290.100,136.333 290.002 C 136.333 289.903,136.221 289.780,136.083 289.727 C 135.946 289.674,135.833 289.541,135.833 289.430 C 135.833 289.320,135.683 289.069,135.500 288.872 C 135.317 288.675,135.167 288.433,135.167 288.335 C 135.167 288.237,135.054 288.113,134.917 288.060 C 134.779 288.008,134.667 287.874,134.667 287.764 C 134.667 287.653,134.517 287.402,134.333 287.205 C 134.150 287.008,134.000 286.767,134.000 286.668 C 134.000 286.570,133.887 286.446,133.750 286.394 C 133.612 286.341,133.500 286.224,133.500 286.133 C 133.500 285.933,129.666 280.439,129.471 280.361 C 129.395 280.331,129.333 280.232,129.333 280.142 C 129.333 279.958,128.486 278.781,128.292 278.694 C 128.223 278.664,128.167 278.565,128.167 278.475 C 128.167 278.291,127.319 277.114,127.125 277.028 C 127.056 276.997,127.000 276.907,127.000 276.827 C 127.000 276.702,126.177 275.506,122.449 270.208 C 122.110 269.727,121.558 268.940,121.223 268.458 C 120.696 267.703,119.793 266.459,119.377 265.917 C 119.307 265.825,119.025 265.412,118.750 265.000 C 118.476 264.587,118.213 264.212,118.167 264.167 C 118.120 264.121,117.858 263.746,117.583 263.333 C 117.309 262.921,117.038 262.546,116.981 262.500 C 116.924 262.454,116.604 262.004,116.269 261.500 C 115.934 260.996,115.417 260.237,115.121 259.813 C 114.826 259.389,114.202 258.489,113.736 257.813 C 113.269 257.137,112.206 255.608,111.372 254.417 C 110.539 253.225,109.608 251.891,109.303 251.452 C 108.999 251.014,108.487 250.285,108.167 249.833 C 107.846 249.382,107.321 248.632,107.000 248.167 C 106.679 247.702,106.154 246.952,105.833 246.500 C 105.513 246.048,105.001 245.320,104.696 244.881 C 100.920 239.449,93.607 229.017,93.418 228.794 C 93.284 228.634,92.973 228.184,92.728 227.794 C 92.484 227.403,92.231 227.046,92.167 227.000 C 92.102 226.954,91.840 226.579,91.583 226.167 C 91.327 225.754,91.064 225.379,91.000 225.333 C 90.936 225.287,90.673 224.912,90.417 224.500 C 90.160 224.088,89.898 223.713,89.833 223.667 C 89.769 223.621,89.507 223.246,89.250 222.833 C 88.993 222.421,88.731 222.046,88.667 222.000 C 88.602 221.954,88.340 221.579,88.083 221.167 C 87.827 220.754,87.565 220.379,87.502 220.333 C 87.439 220.287,87.115 219.838,86.781 219.333 C 86.448 218.829,85.911 218.042,85.590 217.583 C 85.268 217.125,84.805 216.450,84.561 216.083 C 84.173 215.501,83.741 214.923,83.164 214.215 C 83.074 214.105,83.000 213.934,83.000 213.835 C 83.000 213.737,82.887 213.613,82.750 213.560 C 82.613 213.508,82.500 213.374,82.500 213.264 C 82.500 213.153,82.350 212.902,82.167 212.705 C 81.983 212.508,81.833 212.267,81.833 212.168 C 81.833 212.070,81.721 211.946,81.583 211.894 C 81.446 211.841,81.333 211.707,81.333 211.597 C 81.333 211.487,81.183 211.235,81.000 211.038 C 80.817 210.842,80.667 210.600,80.667 210.502 C 80.667 210.403,80.554 210.280,80.417 210.227 C 80.279 210.174,80.167 210.057,80.167 209.966 C 80.167 209.766,76.333 204.273,76.138 204.194 C 76.062 204.164,76.000 204.065,76.000 203.975 C 76.000 203.791,75.153 202.614,74.958 202.528 C 74.890 202.497,74.833 202.398,74.833 202.308 C 74.833 202.125,73.986 200.947,73.792 200.861 C 73.723 200.831,73.667 200.740,73.667 200.660 C 73.667 200.535,72.844 199.339,69.116 194.042 C 68.777 193.560,68.225 192.773,67.889 192.292 C 67.362 191.537,66.459 190.293,66.044 189.750 C 65.974 189.658,65.692 189.246,65.417 188.833 C 65.142 188.421,64.880 188.046,64.833 188.000 C 64.787 187.954,64.524 187.579,64.250 187.167 C 63.976 186.754,63.704 186.379,63.648 186.333 C 63.591 186.287,63.270 185.838,62.935 185.333 C 62.600 184.829,62.084 184.070,61.788 183.646 C 61.492 183.222,60.869 182.322,60.402 181.646 C 59.936 180.970,58.873 179.442,58.039 178.250 C 57.205 177.058,56.274 175.724,55.970 175.286 C 55.666 174.847,55.154 174.118,54.833 173.667 C 54.512 173.215,53.987 172.465,53.667 172.000 C 53.346 171.535,52.821 170.785,52.500 170.333 C 52.179 169.882,51.668 169.153,51.363 168.714 C 50.687 167.740,48.172 164.129,47.185 162.716 L 46.462 161.682 46.824 161.216 C 47.842 159.904,51.167 155.199,51.167 155.071 C 51.167 155.024,51.241 154.895,51.331 154.785 C 51.970 154.001,52.344 153.486,52.750 152.833 C 53.007 152.421,53.265 152.046,53.324 152.000 C 53.462 151.894,55.640 148.782,57.759 145.667 C 58.663 144.337,59.481 143.165,59.576 143.062 C 59.672 142.959,59.847 142.734,59.964 142.562 C 60.082 142.390,60.849 141.313,61.668 140.167 C 62.487 139.021,63.159 137.998,63.162 137.893 C 63.164 137.788,63.279 137.659,63.417 137.606 C 63.554 137.554,63.667 137.396,63.667 137.255 C 63.667 137.115,63.737 137.000,63.822 137.000 C 63.908 137.000,64.021 136.863,64.074 136.696 C 64.127 136.529,64.311 136.242,64.482 136.058 C 64.653 135.874,65.001 135.392,65.255 134.987 C 65.509 134.582,65.764 134.212,65.822 134.167 C 65.924 134.087,66.581 133.162,68.192 130.833 C 68.604 130.237,69.282 129.262,69.697 128.667 C 70.113 128.071,70.782 127.096,71.185 126.500 C 71.587 125.904,72.009 125.319,72.122 125.199 C 72.323 124.986,73.422 123.409,73.750 122.861 C 73.842 122.708,73.959 122.546,74.010 122.500 C 74.276 122.263,75.667 120.181,75.667 120.021 C 75.667 119.918,75.735 119.833,75.819 119.833 C 75.903 119.833,76.213 119.440,76.508 118.958 C 76.802 118.477,77.098 118.046,77.164 118.000 C 77.230 117.954,77.494 117.581,77.751 117.170 C 78.008 116.760,78.301 116.340,78.401 116.237 C 78.501 116.134,79.108 115.284,79.750 114.348 C 80.392 113.412,81.179 112.280,81.500 111.831 C 81.821 111.383,82.421 110.522,82.833 109.918 C 83.246 109.313,83.744 108.593,83.941 108.316 L 84.300 107.814 85.608 109.675 C 86.328 110.699,87.097 111.809,87.317 112.143 C 87.537 112.477,87.770 112.787,87.834 112.833 C 87.898 112.879,88.160 113.254,88.417 113.667 C 88.673 114.079,88.936 114.454,89.000 114.500 C 89.064 114.546,89.327 114.921,89.583 115.333 C 89.840 115.746,90.102 116.121,90.167 116.167 C 90.231 116.212,90.493 116.587,90.750 117.000 C 91.007 117.412,91.269 117.787,91.333 117.833 C 91.398 117.879,91.660 118.254,91.917 118.667 C 92.173 119.079,92.436 119.454,92.500 119.500 C 92.564 119.546,92.827 119.921,93.083 120.333 C 93.340 120.746,93.602 121.121,93.667 121.167 C 93.731 121.212,93.993 121.587,94.250 122.000 C 94.507 122.412,94.769 122.787,94.833 122.833 C 94.898 122.879,95.160 123.254,95.417 123.667 C 95.673 124.079,95.936 124.454,96.000 124.500 C 96.064 124.546,96.327 124.921,96.583 125.333 C 96.840 125.746,97.102 126.121,97.167 126.167 C 97.231 126.212,97.493 126.587,97.750 127.000 C 98.007 127.412,98.269 127.787,98.333 127.833 C 98.398 127.879,98.660 128.254,98.917 128.667 C 99.173 129.079,99.436 129.454,99.500 129.500 C 99.564 129.546,99.827 129.921,100.083 130.333 C 100.340 130.746,100.602 131.121,100.667 131.167 C 100.731 131.212,100.993 131.587,101.250 132.000 C 101.507 132.412,101.768 132.787,101.831 132.833 C 101.894 132.879,102.218 133.329,102.552 133.833 C 102.886 134.337,103.421 135.125,103.742 135.583 C 104.064 136.042,104.589 136.792,104.909 137.250 C 105.230 137.708,105.755 138.458,106.076 138.917 C 106.397 139.375,106.922 140.125,107.242 140.583 C 107.563 141.042,108.089 141.792,108.410 142.250 C 108.732 142.708,109.195 143.383,109.439 143.750 C 109.683 144.117,110.060 144.642,110.277 144.917 C 110.494 145.192,110.731 145.492,110.803 145.583 C 110.875 145.675,110.984 145.881,111.045 146.042 C 111.106 146.202,111.234 146.333,111.328 146.333 C 111.423 146.333,111.500 146.432,111.500 146.552 C 111.500 146.672,111.635 146.916,111.800 147.094 C 111.965 147.271,112.150 147.548,112.212 147.708 C 112.273 147.869,112.400 148.000,112.495 148.000 C 112.589 148.000,112.667 148.098,112.667 148.219 C 112.667 148.339,112.802 148.583,112.967 148.760 C 113.132 148.938,113.317 149.215,113.378 149.375 C 113.439 149.535,113.567 149.667,113.661 149.667 C 113.756 149.667,113.833 149.765,113.833 149.885 C 113.833 150.005,113.968 150.249,114.133 150.427 C 114.298 150.605,114.484 150.881,114.545 151.042 C 114.606 151.202,114.734 151.333,114.828 151.333 C 114.923 151.333,115.000 151.432,115.000 151.552 C 115.000 151.672,115.135 151.916,115.300 152.094 C 115.465 152.271,115.650 152.548,115.712 152.708 C 115.773 152.869,115.900 153.000,115.995 153.000 C 116.089 153.000,116.167 153.098,116.167 153.219 C 116.167 153.339,116.302 153.583,116.467 153.760 C 116.632 153.938,116.817 154.215,116.878 154.375 C 116.939 154.535,117.067 154.667,117.161 154.667 C 117.256 154.667,117.333 154.765,117.333 154.885 C 117.333 155.005,117.468 155.249,117.633 155.427 C 117.798 155.605,117.984 155.881,118.045 156.042 C 118.106 156.202,118.234 156.333,118.328 156.333 C 118.423 156.333,118.500 156.415,118.500 156.514 C 118.500 156.726,126.988 168.891,127.194 168.972 C 127.270 169.003,127.333 169.102,127.333 169.192 C 127.333 169.375,128.181 170.553,128.375 170.639 C 128.444 170.669,128.500 170.768,128.500 170.858 C 128.500 171.042,129.347 172.219,129.542 172.306 C 129.610 172.336,129.667 172.435,129.667 172.525 C 129.667 172.709,130.514 173.886,130.708 173.972 C 130.777 174.003,130.833 174.102,130.833 174.192 C 130.833 174.375,131.681 175.553,131.875 175.639 C 131.944 175.669,132.000 175.768,132.000 175.858 C 132.000 176.042,132.847 177.219,133.042 177.306 C 133.110 177.336,133.167 177.435,133.167 177.525 C 133.167 177.709,134.014 178.886,134.208 178.972 C 134.277 179.003,134.333 179.092,134.333 179.171 C 134.333 179.284,138.552 185.366,143.550 192.458 C 143.889 192.940,144.429 193.708,144.750 194.167 C 145.071 194.625,145.596 195.375,145.917 195.833 C 146.237 196.292,146.762 197.042,147.083 197.500 C 147.404 197.958,147.929 198.708,148.250 199.167 C 148.571 199.625,149.108 200.394,149.444 200.875 C 149.971 201.630,150.874 202.874,151.289 203.417 C 151.359 203.508,151.641 203.921,151.916 204.333 C 152.191 204.746,152.454 205.121,152.500 205.167 C 152.546 205.213,152.809 205.588,153.083 206.000 C 153.358 206.412,153.620 206.787,153.667 206.833 C 153.713 206.879,153.976 207.254,154.250 207.667 C 154.524 208.079,154.787 208.454,154.833 208.500 C 154.880 208.546,155.142 208.921,155.417 209.333 C 155.691 209.746,155.954 210.121,156.000 210.167 C 156.046 210.213,156.309 210.588,156.584 211.000 C 156.859 211.412,157.145 211.825,157.221 211.917 C 157.403 212.136,158.372 213.535,159.074 214.591 C 160.074 216.094,159.930 216.129,161.388 214.042 C 161.725 213.560,162.262 212.792,162.583 212.333 C 162.904 211.875,163.429 211.125,163.750 210.667 C 164.071 210.208,164.596 209.458,164.917 209.000 C 165.237 208.542,165.762 207.792,166.083 207.333 C 166.404 206.875,166.929 206.125,167.250 205.667 C 167.571 205.208,168.111 204.440,168.450 203.958 C 172.350 198.426,182.477 183.928,182.798 183.417 C 183.028 183.050,183.269 182.713,183.333 182.667 C 183.398 182.621,183.660 182.246,183.917 181.833 C 184.173 181.421,184.436 181.046,184.500 181.000 C 184.564 180.954,184.827 180.579,185.083 180.167 C 185.340 179.754,185.602 179.379,185.667 179.333 C 185.731 179.287,185.993 178.912,186.250 178.500 C 186.507 178.088,186.769 177.713,186.833 177.667 C 186.898 177.621,187.160 177.246,187.417 176.833 C 187.673 176.421,187.936 176.046,188.000 176.000 C 188.064 175.954,188.327 175.579,188.583 175.167 C 188.840 174.754,189.102 174.379,189.167 174.333 C 189.231 174.287,189.493 173.912,189.750 173.500 C 190.007 173.088,190.269 172.713,190.333 172.667 C 190.397 172.621,190.630 172.315,190.850 171.986 C 191.247 171.394,191.970 170.350,193.091 168.750 C 193.994 167.462,194.899 166.149,195.083 165.862 C 195.175 165.719,195.381 165.452,195.542 165.269 C 195.702 165.087,195.833 164.847,195.833 164.736 C 195.833 164.626,195.946 164.492,196.083 164.440 C 196.221 164.387,196.333 164.263,196.333 164.165 C 196.333 164.067,196.483 163.825,196.667 163.628 C 196.850 163.431,197.000 163.180,197.000 163.070 C 197.000 162.959,197.112 162.826,197.250 162.773 C 197.387 162.720,197.500 162.597,197.500 162.498 C 197.500 162.400,197.650 162.158,197.833 161.962 C 198.017 161.765,198.167 161.513,198.167 161.403 C 198.167 161.293,198.279 161.159,198.417 161.106 C 198.554 161.054,198.667 160.902,198.667 160.769 C 198.667 160.636,198.729 160.503,198.804 160.472 C 198.880 160.442,199.327 159.865,199.799 159.190 C 200.785 157.778,200.816 157.988,199.324 155.917 C 198.861 155.275,198.277 154.450,198.024 154.083 C 197.771 153.717,197.287 153.023,196.949 152.542 C 196.610 152.060,196.071 151.292,195.750 150.833 C 195.429 150.375,194.890 149.606,194.553 149.125 C 194.215 148.644,193.596 147.755,193.178 147.150 C 188.975 141.072,180.399 128.849,180.333 128.843 C 180.287 128.840,179.838 129.440,179.333 130.179 C 178.829 130.917,178.154 131.889,177.833 132.340 C 177.126 133.334,176.282 134.537,175.500 135.668 C 175.179 136.132,174.654 136.882,174.333 137.333 C 174.012 137.785,173.487 138.535,173.167 139.000 C 172.846 139.465,172.321 140.215,172.000 140.667 C 171.679 141.118,171.154 141.868,170.833 142.333 C 170.512 142.798,169.987 143.548,169.667 144.000 C 169.346 144.452,168.821 145.202,168.500 145.667 C 168.179 146.132,167.654 146.880,167.333 147.331 C 167.012 147.781,165.258 150.291,163.434 152.908 C 160.959 156.460,160.066 157.624,159.914 157.498 C 159.801 157.404,159.414 156.898,159.053 156.372 C 158.692 155.847,158.119 155.023,157.781 154.542 C 157.443 154.060,156.904 153.292,156.583 152.833 C 156.262 152.375,155.737 151.625,155.417 151.167 C 155.096 150.708,154.571 149.958,154.250 149.500 C 153.929 149.042,153.404 148.292,153.083 147.833 C 152.762 147.375,152.237 146.625,151.917 146.167 C 151.596 145.708,151.071 144.958,150.750 144.500 C 150.429 144.042,149.904 143.292,149.583 142.833 C 149.262 142.375,148.737 141.625,148.417 141.167 C 148.096 140.708,147.571 139.958,147.250 139.500 C 146.929 139.042,146.404 138.292,146.083 137.833 C 145.762 137.375,145.237 136.625,144.917 136.167 C 144.596 135.708,144.071 134.958,143.750 134.500 C 143.429 134.042,142.904 133.292,142.583 132.833 C 142.262 132.375,141.737 131.625,141.417 131.167 C 141.096 130.708,140.571 129.958,140.250 129.500 C 139.929 129.042,139.417 128.310,139.112 127.875 C 138.807 127.440,138.193 126.558,137.747 125.917 C 132.492 118.359,89.909 57.562,89.827 57.500 C 89.766 57.454,89.507 57.079,89.250 56.667 C 88.993 56.254,88.731 55.879,88.667 55.833 C 88.602 55.788,88.340 55.413,88.083 55.000 C 87.827 54.587,87.564 54.212,87.500 54.167 C 87.436 54.121,87.173 53.746,86.917 53.333 C 86.660 52.921,86.398 52.546,86.333 52.500 C 86.269 52.454,86.009 52.085,85.755 51.680 C 85.501 51.274,85.153 50.792,84.982 50.609 C 84.811 50.425,84.627 50.138,84.574 49.971 C 84.423 49.496,84.307 49.587,83.417 50.871 " stroke="none" fill="#04a4dc" fill-rule="evenodd"></path><path id="path1" d="" stroke="none" fill="#04a4e4" fill-rule="evenodd"></path><path id="path2" d="" stroke="none" fill="#08a4dc" fill-rule="evenodd"></path><path id="path3" d="" stroke="none" fill="#08a4dc" fill-rule="evenodd"></path><path id="path4" d="" stroke="none" fill="#08a4dc" fill-rule="evenodd"></path></g></svg>