<?xml version="1.0" encoding="utf-8"?>
<!-- Generator: Adobe Illustrator 21.0.0, SVG Export Plug-In . SVG Version: 6.00 Build 0)  -->
<svg version="1.1" id="Layer_1" xmlns="http://www.w3.org/2000/svg" xmlns:xlink="http://www.w3.org/1999/xlink" x="0px" y="0px"
	 viewBox="0 0 100 100" style="enable-background:new 0 0 100 100;" xml:space="preserve">
<style type="text/css">
	.st0{fill:#242424;}
	.st1{fill:#FDFDFD;}
	.st2{fill:#A6F801;}
</style>
<g>
	<g>
		<path class="st0" d="M100,50c0,27.7-22.4,50.1-50.1,50C22.4,100,0,77.5,0,49.9C0,22.4,22.5,0,50,0C77.6,0,100,22.4,100,50z"/>
		<path class="st1" d="M67.4,30.8c-1.7,2.7-3.4,5.6-5.1,8.3c-0.5,0.9-1.3,0.6-2.1,0.6c-8.4,0-16.8,0-25.1,0c-0.7,0-1.2,0-2.2,0
			c1.9,3.2,3.7,6,5.4,8.9c0.5,0.8,1.2,0.6,1.8,0.7c4.6,0,9.4,0,14,0c0.5,0,1.2-0.3,1.6,0.2c0.2,0.6-0.3,1-0.7,1.5
			c-1.2,2.1-2.5,4-3.7,6.1c-0.6,1.2-1.4,1.5-2.6,1.4c-1.4-0.1-2.8,0-4.6,0c0.9,1.5,1.7,2.7,2.4,4c2.5,4.1,4.9,8.2,7.6,12.3
			c1,1.5,1,2.6-0.1,4.1c-2.3,3.4-6.3,3.5-8.5,0c-4.5-7.2-8.9-14.5-13.3-21.8c-3.8-6.2-7.6-12.4-11.4-18.7c-1.1-1.7-1.7-3.5-0.6-5.4
			c1.1-1.9,2.8-2.4,4.9-2.4c13.4,0,26.8,0,40.2,0C66.2,30.6,66.8,30.3,67.4,30.8z"/>
		<path class="st2" d="M75,44.8c-0.2,0.3-0.3,0.7-0.6,1C69.3,54.2,64.1,62.6,59,71.2c-0.8,1.4-1.2,1.2-2-0.1c-1.4-2.4-3.8-4.8-4-7.3
			s2.5-4.8,3.9-7.2c2.2-3.7,4.6-7.4,6.7-11.2c0.6-1,1.2-1.3,2.3-1.2c2.7,0.1,5.2,0,7.9,0C74.2,44.2,74.9,43.9,75,44.8z"/>
		<path class="st2" d="M67.1,39.8c1.9-3.1,3.4-6,5.3-8.6c1.1-1.5,3.1-0.7,4.6-0.3c1.7,0.5,2.7,1.9,3,3.7c0.3,2-0.8,3.6-2,5
			c-0.2,0.2-0.7,0.2-1.1,0.2C73.8,39.8,70.7,39.8,67.1,39.8z"/>
	</g>
</g>
</svg>
